<svg width="92" height="92" viewBox="0 0 92 92" fill="none" xmlns="http://www.w3.org/2000/svg" xmlns:xlink="http://www.w3.org/1999/xlink">
<path d="M86.5,19L76,19L76,5.5C75.996,4.308 75.521,3.165 74.678,2.322C73.835,1.479 72.692,1.004 71.5,1L20.5,1C19.308,1.004 18.165,1.479 17.322,2.322C16.479,3.165 16.004,4.308 16,5.5L16,19L5.5,19C4.308,19.004 3.165,19.479 2.322,20.322C1.479,21.165 1.004,22.308 1,23.5L1,71.5C1.004,72.692 1.479,73.835 2.322,74.678C3.165,75.521 4.308,75.996 5.5,76L35.23,76L34.225,82L29.5,82C29.267,82.002 29.038,82.057 28.83,82.161C28.622,82.265 28.441,82.415 28.3,82.6L23.8,88.6C23.633,88.824 23.532,89.09 23.508,89.368C23.484,89.647 23.539,89.926 23.665,90.175C23.786,90.425 23.976,90.635 24.213,90.781C24.449,90.927 24.722,91.003 25,91L67,91C67.278,91.003 67.551,90.927 67.787,90.781C68.024,90.635 68.214,90.425 68.335,90.175C68.461,89.926 68.516,89.647 68.492,89.368C68.468,89.09 68.367,88.824 68.2,88.6L63.7,82.6C63.559,82.415 63.378,82.265 63.17,82.161C62.962,82.057 62.733,82.002 62.5,82L57.775,82L56.77,76L86.5,76C87.692,75.996 88.835,75.521 89.678,74.678C90.521,73.835 90.996,72.692 91,71.5L91,23.5C90.996,22.308 90.521,21.165 89.678,20.322C88.835,19.479 87.692,19.004 86.5,19L86.5,19ZM19,5.5C19,5.102 19.158,4.721 19.439,4.439C19.721,4.158 20.102,4 20.5,4L71.5,4C71.898,4 72.279,4.158 72.561,4.439C72.842,4.721 73,5.102 73,5.5L73,13L19,13L19,5.5ZM19,16L73,16L73,50.5C73,50.898 72.842,51.279 72.561,51.561C72.279,51.842 71.898,52 71.5,52L20.5,52C20.102,52 19.721,51.842 19.439,51.561C19.158,51.279 19,50.898 19,50.5L19,16ZM61.75,85L64,88L28,88L30.25,85L61.75,85ZM37.27,82L38.275,76L53.725,76L54.73,82L37.27,82ZM88,71.5C88,71.898 87.842,72.279 87.561,72.561C87.279,72.842 86.898,73 86.5,73L5.5,73C5.102,73 4.721,72.842 4.439,72.561C4.158,72.279 4,71.898 4,71.5L4,67L88,67L88,71.5ZM88,64L4,64L4,23.5C4,23.102 4.158,22.721 4.439,22.439C4.721,22.158 5.102,22 5.5,22L16,22L16,50.5C16.004,51.692 16.479,52.835 17.322,53.678C18.165,54.521 19.308,54.996 20.5,55L26.5,55L26.5,58L16,58L16,61L28,61C28.398,61 28.779,60.842 29.061,60.561C29.342,60.279 29.5,59.898 29.5,59.5L29.5,55L38.5,55L38.5,61L41.5,61L41.5,55L50.5,55L50.5,61L53.5,61L53.5,55L62.5,55L62.5,59.5C62.5,59.898 62.658,60.279 62.939,60.561C63.221,60.842 63.602,61 64,61L76,61L76,58L65.5,58L65.5,55L71.5,55C72.692,54.996 73.835,54.521 74.678,53.678C75.521,52.835 75.996,51.692 76,50.5L76,22L86.5,22C86.898,22 87.279,22.158 87.561,22.439C87.842,22.721 88,23.102 88,23.5L88,64Z" fill="#80A948"/>
<rect  x="67" y="7" width="3" height="3" fill="#80A948"/>
<rect  x="61" y="7" width="3" height="3" fill="#80A948"/>
<rect  x="55" y="7" width="3" height="3" fill="#80A948"/>
<path d="M37.439,23.938L28.439,32.938C28.158,33.219 28,33.6 28,33.998C28,34.396 28.158,34.777 28.439,35.058L37.439,44.058L39.56,41.938L31.621,33.998L39.56,26.058L37.439,23.938Z" fill="#80A948"/>
<path d="M54.558,23.938L52.438,26.058L60.377,33.998L52.438,41.938L54.558,44.058L63.558,35.058C63.84,34.777 63.998,34.396 63.998,33.998C63.998,33.6 63.84,33.219 63.558,32.938L54.558,23.938Z" fill="#80A948"/>
<path d="M31.765,32.469L60.232,32.469L60.232,35.47L31.765,35.47L31.765,32.469Z" transform="rotate(-143.166 45.998 33.969)" fill="#80A948"/>
</svg>
