<svg width="92" height="92" viewBox="0 0 92 92" fill="none" xmlns="http://www.w3.org/2000/svg" xmlns:xlink="http://www.w3.org/1999/xlink">
<path d="M90.085,35.62L70,27.01L70,13C69.997,12.602 69.841,12.221 69.565,11.935L59.065,1.435C58.779,1.159 58.398,1.003 58,1L5.5,1C4.308,1.004 3.165,1.479 2.322,2.322C1.479,3.165 1.004,4.308 1,5.5L1,86.5C1.004,87.692 1.479,88.835 2.322,89.678C3.165,90.521 4.308,90.996 5.5,91L65.5,91C66.692,90.996 67.835,90.521 68.678,89.678C69.521,88.835 69.996,87.692 70,86.5L70,82.765L77.815,77.2C81.889,74.279 85.209,70.431 87.502,65.974C89.794,61.516 90.993,56.577 91,51.565L91,37C91,36.706 90.913,36.418 90.75,36.172C90.587,35.927 90.356,35.735 90.085,35.62ZM59.5,6.115L64.885,11.5L59.5,11.5L59.5,6.115ZM67,86.5C67,86.898 66.842,87.279 66.561,87.561C66.279,87.842 65.898,88 65.5,88L5.5,88C5.102,88 4.721,87.842 4.439,87.561C4.158,87.279 4,86.898 4,86.5L4,5.5C4,5.102 4.158,4.721 4.439,4.439C4.721,4.158 5.102,4 5.5,4L56.5,4L56.5,13C56.5,13.398 56.658,13.779 56.939,14.061C57.221,14.342 57.602,14.5 58,14.5L67,14.5L67,27.01L57.37,31.135L50.815,24.58C51.535,23.91 51.961,22.983 52,22C52,20.23 50.53,19.075 49.36,18.145C48.832,17.788 48.366,17.347 47.98,16.84C47.863,16.169 47.873,15.482 48.01,14.815C48.175,13.27 48.37,11.53 47.17,10.33C45.97,9.13 44.215,9.325 42.685,9.49C42.023,9.627 41.341,9.637 40.675,9.52C40.159,9.139 39.713,8.672 39.355,8.14C38.425,6.955 37.27,5.5 35.5,5.5C33.73,5.5 32.575,6.97 31.645,8.14C31.288,8.668 30.847,9.134 30.34,9.52C29.669,9.637 28.982,9.627 28.315,9.49C26.77,9.325 25.03,9.13 23.83,10.33C22.63,11.53 22.825,13.27 22.99,14.815C23.127,15.477 23.137,16.159 23.02,16.825C22.639,17.341 22.172,17.787 21.64,18.145C20.455,19.075 19,20.23 19,22C19.039,22.983 19.465,23.91 20.185,24.58L11.095,33.67C10.896,33.871 10.759,34.124 10.698,34.4C10.636,34.676 10.655,34.964 10.75,35.23C10.842,35.496 11.008,35.731 11.228,35.907C11.449,36.082 11.715,36.191 11.995,36.22L20.35,37.15L21.28,45.505C21.309,45.785 21.418,46.051 21.593,46.272C21.769,46.492 22.004,46.658 22.27,46.75C22.428,46.809 22.596,46.839 22.765,46.84C23.163,46.841 23.546,46.685 23.83,46.405L32.92,37.315C33.239,37.687 33.635,37.985 34.08,38.19C34.526,38.394 35.01,38.5 35.5,38.5C35.99,38.5 36.474,38.394 36.92,38.19C37.365,37.985 37.761,37.687 38.08,37.315L46,45.22L46,51.565C46.005,52.713 46.07,53.859 46.195,55L10,55L10,58L46.675,58C46.9,59.02 47.155,60.01 47.455,61L10,61L10,64L48.58,64C49.024,65.025 49.519,66.026 50.065,67L10,67L10,70L51.985,70C52.738,71.053 53.56,72.055 54.445,73L10,73L10,76L57.625,76C58.135,76.405 58.66,76.81 59.185,77.2L67,82.765L67,86.5ZM23.83,33.67C25.03,34.87 26.77,34.675 28.315,34.51C28.978,34.381 29.659,34.37 30.325,34.48C30.569,34.616 30.783,34.799 30.955,35.02L23.92,42.07L23.2,35.62C23.162,35.283 23.01,34.969 22.77,34.73C22.531,34.49 22.217,34.338 21.88,34.3L15.43,33.58L22.48,26.545C22.699,26.712 22.883,26.921 23.02,27.16C23.137,27.831 23.127,28.518 22.99,29.185C22.825,30.73 22.63,32.47 23.83,33.67ZM29.695,31.39C29.123,31.405 28.552,31.45 27.985,31.525C27.317,31.655 26.631,31.665 25.96,31.555C25.836,30.88 25.841,30.188 25.975,29.515C26.21,28.353 26.149,27.151 25.795,26.02C25.256,24.999 24.466,24.132 23.5,23.5C23.005,23.11 22,22.315 22,22C22,21.685 23.005,20.89 23.5,20.5C24.466,19.868 25.256,19.001 25.795,17.98C26.149,16.849 26.21,15.647 25.975,14.485C25.845,13.817 25.835,13.131 25.945,12.46C26.62,12.336 27.312,12.341 27.985,12.475C29.147,12.71 30.349,12.649 31.48,12.295C32.501,11.756 33.368,10.966 34,10C34.39,9.505 35.185,8.5 35.5,8.5C35.815,8.5 36.61,9.505 37,10C37.632,10.966 38.499,11.756 39.52,12.295C40.651,12.649 41.853,12.71 43.015,12.475C43.683,12.345 44.369,12.335 45.04,12.445C45.164,13.12 45.159,13.812 45.025,14.485C44.79,15.647 44.851,16.849 45.205,17.98C45.744,19.001 46.534,19.868 47.5,20.5C47.995,20.89 49,21.685 49,22C49,22.315 47.995,23.11 47.5,23.5C46.534,24.132 45.744,24.999 45.205,26.02C44.851,27.151 44.79,28.353 45.025,29.515C45.155,30.183 45.165,30.869 45.055,31.54C44.379,31.656 43.689,31.651 43.015,31.525C41.853,31.29 40.651,31.351 39.52,31.705C38.499,32.244 37.632,33.034 37,34C36.61,34.495 35.815,35.5 35.5,35.5C35.185,35.5 34.39,34.495 34,34C33.368,33.034 32.501,32.244 31.48,31.705C30.912,31.481 30.305,31.374 29.695,31.39L29.695,31.39ZM40.66,34.48C41.331,34.363 42.018,34.373 42.685,34.51C44.215,34.675 45.97,34.87 47.17,33.67C48.37,32.47 48.175,30.73 48.01,29.185C47.873,28.523 47.863,27.841 47.98,27.175C48.116,26.931 48.299,26.717 48.52,26.545L54.4,32.41L46.915,35.62C46.644,35.735 46.413,35.927 46.25,36.172C46.087,36.418 46,36.706 46,37L46,40.99L40.045,35.02C40.212,34.801 40.421,34.617 40.66,34.48L40.66,34.48ZM88,51.565C87.996,56.101 86.911,60.571 84.835,64.604C82.758,68.637 79.75,72.117 76.06,74.755L68.5,80.155L60.94,74.755C57.25,72.117 54.242,68.637 52.165,64.604C50.089,60.571 49.004,56.101 49,51.565L49,37.99L68.5,29.635L88,37.99L88,51.565Z" fill="#80A948"/>
<path d="M67.944,34.107L52.944,40.107C52.665,40.218 52.426,40.411 52.258,40.659C52.09,40.907 52,41.201 52,41.501L52,50.966C51.991,54.791 52.847,58.57 54.504,62.018C56.161,65.466 58.577,68.495 61.57,70.878L67.563,75.678C67.829,75.891 68.159,76.007 68.5,76.007C68.841,76.007 69.172,75.891 69.438,75.678L75.43,70.878C78.423,68.495 80.839,65.466 82.496,62.018C84.154,58.57 85.01,54.791 85,50.966L85,41.501C85,41.201 84.91,40.907 84.742,40.659C84.574,40.411 84.335,40.218 84.057,40.107L69.057,34.107C68.699,33.964 68.301,33.964 67.944,34.107ZM82,42.516L82,50.966C82.008,54.341 81.253,57.675 79.79,60.717C78.328,63.759 76.196,66.432 73.555,68.534L68.5,72.581L63.445,68.531C60.804,66.429 58.673,63.757 57.21,60.715C55.748,57.674 54.992,54.341 55,50.966L55,42.516L68.5,37.116L82,42.516Z" fill="#80A948"/>
<path d="M62.058,53.941L59.938,56.062L64.438,60.562C64.719,60.843 65.1,61.001 65.498,61.001L65.548,61.001C65.753,60.994 65.955,60.946 66.141,60.858C66.326,60.77 66.492,60.644 66.628,60.49L77.128,48.49L74.868,46.516L65.418,57.316L62.058,53.941Z" fill="#80A948"/>
<path d="M43,22C43,20.517 42.56,19.067 41.736,17.833C40.912,16.6 39.741,15.639 38.37,15.071C37,14.503 35.492,14.355 34.037,14.644C32.582,14.934 31.246,15.648 30.197,16.697C29.148,17.746 28.434,19.082 28.144,20.537C27.855,21.992 28.003,23.5 28.571,24.87C29.139,26.241 30.1,27.412 31.333,28.236C32.567,29.06 34.017,29.5 35.5,29.5C37.488,29.498 39.395,28.707 40.801,27.301C42.207,25.895 42.998,23.988 43,22L43,22ZM31,22C31,21.11 31.264,20.24 31.758,19.5C32.253,18.76 32.956,18.183 33.778,17.843C34.6,17.502 35.505,17.413 36.378,17.586C37.251,17.76 38.053,18.189 38.682,18.818C39.311,19.447 39.74,20.249 39.914,21.122C40.087,21.995 39.998,22.9 39.657,23.722C39.317,24.544 38.74,25.247 38,25.742C37.26,26.236 36.39,26.5 35.5,26.5C34.307,26.5 33.162,26.026 32.318,25.182C31.474,24.338 31,23.193 31,22Z" fill="#80A948"/>
</svg>
