<svg width="92" height="92" viewBox="0 0 92 92" fill="none" xmlns="http://www.w3.org/2000/svg" xmlns:xlink="http://www.w3.org/1999/xlink">
<path d="M89.5,16L78.961,16C78.04,14.732 76.734,13.796 75.239,13.329C73.743,12.863 72.137,12.892 70.659,13.411C67.803,9.561 64.085,6.433 59.803,4.278C55.521,2.123 50.794,1 46,1C41.206,1 36.479,2.123 32.197,4.278C27.915,6.433 24.197,9.561 21.341,13.411C19.863,12.892 18.257,12.863 16.761,13.329C15.265,13.796 13.96,14.732 13.039,16L2.5,16C2.102,16 1.721,16.158 1.439,16.439C1.158,16.72 1,17.102 1,17.5L1,74.5C1,74.898 1.158,75.279 1.439,75.56C1.721,75.842 2.102,76 2.5,76L41.5,76L41.5,82L32.5,82C32.102,82 31.721,82.158 31.439,82.439L25.439,88.439C25.23,88.649 25.087,88.916 25.029,89.207C24.971,89.498 25.001,89.8 25.114,90.074C25.228,90.348 25.42,90.582 25.667,90.747C25.913,90.912 26.203,91 26.5,91L65.5,91C65.797,91 66.087,90.912 66.333,90.747C66.58,90.582 66.772,90.348 66.886,90.074C66.999,89.8 67.029,89.498 66.971,89.207C66.913,88.916 66.77,88.649 66.561,88.439L60.561,82.439C60.279,82.158 59.898,82 59.5,82L50.5,82L50.5,76L89.5,76C89.898,76 90.279,75.842 90.561,75.56C90.842,75.279 91,74.898 91,74.5L91,17.5C91,17.102 90.842,16.72 90.561,16.439C90.279,16.158 89.898,16 89.5,16ZM77.5,20.5C77.5,21.39 77.236,22.26 76.742,23C76.247,23.74 75.544,24.317 74.722,24.657C73.9,24.998 72.995,25.087 72.122,24.913C71.249,24.74 70.447,24.311 69.818,23.682C69.189,23.052 68.76,22.251 68.586,21.378C68.413,20.505 68.502,19.6 68.843,18.778C69.183,17.955 69.76,17.253 70.5,16.758C71.24,16.264 72.11,16 73,16C74.193,16 75.338,16.474 76.182,17.318C77.026,18.162 77.5,19.306 77.5,20.5L77.5,20.5ZM46,4C50.267,4.001 54.477,4.986 58.301,6.879C62.126,8.772 65.462,11.522 68.05,14.915C67.26,15.605 66.624,16.453 66.184,17.404C65.743,18.356 65.508,19.389 65.493,20.438C65.478,21.486 65.684,22.526 66.098,23.489C66.511,24.453 67.123,25.319 67.893,26.03C68.663,26.742 69.574,27.284 70.567,27.62C71.56,27.956 72.613,28.08 73.657,27.983C74.701,27.886 75.712,27.57 76.626,27.056C77.54,26.542 78.336,25.841 78.961,25L82,25L82,67L56.17,67L53.9,57.919C54.214,57.835 54.491,57.652 54.69,57.395C54.889,57.139 54.998,56.824 55,56.5L55,51.967C55.789,51.889 56.543,51.603 57.186,51.14C57.83,50.677 58.339,50.052 58.663,49.328L63.163,39.197C63.485,38.473 63.609,37.677 63.524,36.889C63.44,36.101 63.148,35.35 62.68,34.711L47.21,13.613C47.065,13.433 46.88,13.287 46.671,13.187C46.461,13.087 46.232,13.035 46,13.035C45.768,13.035 45.539,13.087 45.329,13.187C45.12,13.287 44.935,13.433 44.79,13.613L29.319,34.711C28.851,35.35 28.56,36.102 28.475,36.89C28.39,37.678 28.515,38.474 28.835,39.199L33.335,49.328C33.66,50.052 34.169,50.677 34.813,51.14C35.456,51.604 36.211,51.889 37,51.967L37,56.5C37.002,56.824 37.111,57.139 37.31,57.395C37.509,57.652 37.786,57.835 38.099,57.919L35.83,67L10,67L10,25L13.039,25C13.664,25.841 14.46,26.542 15.374,27.056C16.288,27.57 17.299,27.886 18.343,27.983C19.387,28.08 20.44,27.956 21.433,27.62C22.426,27.284 23.337,26.742 24.107,26.03C24.877,25.319 25.489,24.453 25.902,23.489C26.316,22.526 26.522,21.486 26.507,20.438C26.492,19.389 26.257,18.356 25.816,17.404C25.376,16.453 24.74,15.605 23.95,14.915C26.538,11.522 29.874,8.772 33.699,6.879C37.523,4.986 41.733,4.001 46,4L46,4ZM46,34C46.593,34 47.173,34.176 47.667,34.505C48.16,34.835 48.545,35.303 48.772,35.852C48.999,36.4 49.058,37.003 48.942,37.585C48.827,38.167 48.541,38.701 48.121,39.121C47.702,39.541 47.167,39.826 46.585,39.942C46.003,40.058 45.4,39.998 44.852,39.771C44.304,39.544 43.835,39.16 43.506,38.666C43.176,38.173 43,37.593 43,37C43,36.204 43.316,35.441 43.879,34.878C44.441,34.316 45.204,34 46,34L46,34ZM44.5,31.213C43.086,31.578 41.854,32.446 41.034,33.655C40.214,34.863 39.864,36.329 40.048,37.778C40.232,39.227 40.938,40.559 42.034,41.524C43.129,42.49 44.54,43.022 46,43.022C47.46,43.022 48.871,42.49 49.966,41.524C51.062,40.559 51.768,39.227 51.952,37.778C52.136,36.329 51.786,34.863 50.966,33.655C50.146,32.446 48.914,31.578 47.5,31.213L47.5,19.082L60.262,36.482C60.419,36.696 60.516,36.947 60.545,37.211C60.573,37.474 60.531,37.74 60.423,37.982L55.923,48.112C55.804,48.377 55.611,48.602 55.368,48.759C55.124,48.917 54.84,49 54.55,49L37.45,49C37.16,49 36.876,48.916 36.632,48.757C36.389,48.599 36.197,48.374 36.079,48.109L31.579,37.981C31.471,37.739 31.429,37.473 31.457,37.209C31.485,36.946 31.583,36.694 31.74,36.481L44.5,19.082L44.5,31.213ZM52,52L52,55L40,55L40,52L52,52ZM41.172,58L50.829,58L53.079,67L38.922,67L41.172,58ZM19,16C19.89,16 20.76,16.264 21.5,16.758C22.24,17.253 22.817,17.955 23.157,18.778C23.498,19.6 23.587,20.505 23.414,21.378C23.24,22.251 22.811,23.052 22.182,23.682C21.553,24.311 20.751,24.74 19.878,24.913C19.005,25.087 18.1,24.998 17.278,24.657C16.456,24.317 15.753,23.74 15.258,23C14.764,22.26 14.5,21.39 14.5,20.5C14.5,19.306 14.974,18.162 15.818,17.318C16.662,16.474 17.807,16 19,16L19,16ZM61.879,88L30.121,88L33.121,85L58.879,85L61.879,88ZM47.5,82L44.5,82L44.5,76L47.5,76L47.5,82ZM88,73L4,73L4,19L11.65,19C11.448,19.99 11.448,21.01 11.65,22L8.5,22C8.102,22 7.721,22.158 7.439,22.439C7.158,22.72 7,23.102 7,23.5L7,68.5C7,68.898 7.158,69.279 7.439,69.56C7.721,69.842 8.102,70 8.5,70L83.5,70C83.898,70 84.279,69.842 84.561,69.56C84.842,69.279 85,68.898 85,68.5L85,23.5C85,23.102 84.842,22.72 84.561,22.439C84.279,22.158 83.898,22 83.5,22L80.35,22C80.552,21.01 80.552,19.99 80.35,19L88,19L88,73Z" fill="#80A948"/>
<path d="M20.5,55L14.5,55C14.102,55 13.721,55.158 13.439,55.439C13.158,55.721 13,56.102 13,56.5L13,62.5C13,62.898 13.158,63.279 13.439,63.561C13.721,63.842 14.102,64 14.5,64L20.5,64C20.898,64 21.279,63.842 21.561,63.561C21.842,63.279 22,62.898 22,62.5L22,56.5C22,56.102 21.842,55.721 21.561,55.439C21.279,55.158 20.898,55 20.5,55ZM19,61L16,61L16,58L19,58L19,61Z" fill="#80A948"/>
<path d="M20.5,43L14.5,43C14.102,43 13.721,43.158 13.439,43.439C13.158,43.721 13,44.102 13,44.5L13,50.5C13,50.898 13.158,51.279 13.439,51.561C13.721,51.842 14.102,52 14.5,52L20.5,52C20.898,52 21.279,51.842 21.561,51.561C21.842,51.279 22,50.898 22,50.5L22,44.5C22,44.102 21.842,43.721 21.561,43.439C21.279,43.158 20.898,43 20.5,43ZM19,49L16,49L16,46L19,46L19,49Z" fill="#80A948"/>
<path d="M20.5,31L14.5,31C14.102,31 13.721,31.158 13.439,31.439C13.158,31.721 13,32.102 13,32.5L13,38.5C13,38.898 13.158,39.279 13.439,39.561C13.721,39.842 14.102,40 14.5,40L20.5,40C20.898,40 21.279,39.842 21.561,39.561C21.842,39.279 22,38.898 22,38.5L22,32.5C22,32.102 21.842,31.721 21.561,31.439C21.279,31.158 20.898,31 20.5,31ZM19,37L16,37L16,34L19,34L19,37Z" fill="#80A948"/>
<path d="M71.5,64L77.5,64C77.898,64 78.279,63.842 78.561,63.561C78.842,63.279 79,62.898 79,62.5L79,56.5C79,56.102 78.842,55.721 78.561,55.439C78.279,55.158 77.898,55 77.5,55L71.5,55C71.102,55 70.721,55.158 70.439,55.439C70.158,55.721 70,56.102 70,56.5L70,62.5C70,62.898 70.158,63.279 70.439,63.561C70.721,63.842 71.102,64 71.5,64ZM73,58L76,58L76,61L73,61L73,58Z" fill="#80A948"/>
<path d="M71.5,52L77.5,52C77.898,52 78.279,51.842 78.561,51.561C78.842,51.279 79,50.898 79,50.5L79,44.5C79,44.102 78.842,43.721 78.561,43.439C78.279,43.158 77.898,43 77.5,43L71.5,43C71.102,43 70.721,43.158 70.439,43.439C70.158,43.721 70,44.102 70,44.5L70,50.5C70,50.898 70.158,51.279 70.439,51.561C70.721,51.842 71.102,52 71.5,52ZM73,46L76,46L76,49L73,49L73,46Z" fill="#80A948"/>
<path d="M71.5,40L77.5,40C77.898,40 78.279,39.842 78.561,39.561C78.842,39.279 79,38.898 79,38.5L79,32.5C79,32.102 78.842,31.721 78.561,31.439C78.279,31.158 77.898,31 77.5,31L71.5,31C71.102,31 70.721,31.158 70.439,31.439C70.158,31.721 70,32.102 70,32.5L70,38.5C70,38.898 70.158,39.279 70.439,39.561C70.721,39.842 71.102,40 71.5,40ZM73,34L76,34L76,37L73,37L73,34Z" fill="#80A948"/>
</svg>
