<svg width="296" height="80" viewBox="0 0 296 80" fill="none" xmlns="http://www.w3.org/2000/svg" xmlns:xlink="http://www.w3.org/1999/xlink">
<path d="M272.428,0L23.585,0C22.678,0 21.782,0 20.877,0.004C20.12,0.008 19.368,0.02 18.604,0.03C16.943,0.045 15.286,0.164 13.647,0.383C12.011,0.607 10.425,1.03 8.945,1.637C7.467,2.249 6.116,3.045 4.941,3.994C3.761,4.942 2.777,6.036 2.027,7.237C1.275,8.434 0.754,9.718 0.481,11.043C0.205,12.367 0.057,13.705 0.037,15.047C0.015,15.66 0.012,16.276 0,16.889L0,63.117C0.012,63.738 0.015,64.34 0.037,64.961C0.057,66.303 0.205,67.642 0.481,68.965C0.753,70.291 1.274,71.575 2.027,72.774C2.776,73.97 3.76,75.06 4.941,76.002C6.111,76.956 7.463,77.752 8.945,78.36C10.425,78.968 12.01,79.394 13.647,79.621C15.286,79.839 16.943,79.957 18.604,79.975C19.368,79.988 20.12,79.996 20.877,79.996C21.782,80 22.678,80 23.585,80L272.428,80C273.318,80 274.22,80 275.11,79.996C275.864,79.996 276.636,79.988 277.39,79.975C279.048,79.958 280.702,79.84 282.338,79.621C283.98,79.392 285.57,78.967 287.058,78.36C288.538,77.752 289.888,76.956 291.058,76.002C292.236,75.057 293.222,73.967 293.98,72.774C294.728,71.574 295.244,70.29 295.512,68.965C295.788,67.642 295.942,66.303 295.972,64.961C295.98,64.34 295.98,63.738 295.98,63.117C296,62.391 296,61.668 296,60.93L296,19.073C296,18.34 296,17.614 295.98,16.889C295.98,16.276 295.98,15.66 295.972,15.047C295.942,13.705 295.788,12.367 295.512,11.043C295.244,9.719 294.726,8.435 293.98,7.236C292.454,4.831 290.032,2.872 287.058,1.637C285.57,1.031 283.98,0.609 282.338,0.383C280.702,0.162 279.048,0.044 277.39,0.029C276.636,0.02 275.864,0.008 275.11,0.004C274.22,0 273.318,0 272.428,0L272.428,0Z" fill="#A6A6A6"/>
<path d="M20.886,78.25C20.132,78.25 19.397,78.242 18.649,78.229C17.1,78.212 15.555,78.103 14.026,77.902C12.6,77.704 11.218,77.335 9.927,76.807C8.648,76.283 7.481,75.597 6.472,74.773C5.448,73.96 4.595,73.016 3.947,71.98C3.293,70.938 2.84,69.82 2.604,68.666C2.35,67.426 2.212,66.173 2.192,64.916C2.177,64.494 2.156,63.09 2.156,63.09L2.156,16.889C2.156,16.889 2.178,15.506 2.193,15.1C2.211,13.845 2.348,12.593 2.602,11.355C2.838,10.198 3.291,9.077 3.946,8.031C4.591,6.996 5.439,6.052 6.457,5.235C7.474,4.411 8.645,3.721 9.926,3.19C11.214,2.664 12.593,2.297 14.016,2.103C15.55,1.9 17.101,1.79 18.655,1.774L20.887,1.75L275.094,1.75L277.352,1.775C278.894,1.79 280.43,1.899 281.95,2.101C283.388,2.298 284.78,2.667 286.082,3.196C288.65,4.266 290.738,5.958 292.056,8.036C292.702,9.075 293.148,10.187 293.38,11.334C293.638,12.582 293.78,13.843 293.81,15.108C293.818,15.675 293.818,16.283 293.818,16.889C293.838,17.639 293.838,18.353 293.838,19.072L293.838,60.93C293.838,61.656 293.838,62.365 293.818,63.08C293.818,63.73 293.818,64.326 293.808,64.939C293.78,66.182 293.638,67.421 293.386,68.646C293.154,69.809 292.704,70.935 292.05,71.986C291.398,73.011 290.55,73.947 289.538,74.758C288.526,75.585 287.358,76.276 286.076,76.803C284.776,77.335 283.386,77.705 281.95,77.902C280.42,78.104 278.876,78.213 277.326,78.229C276.602,78.242 275.842,78.25 275.106,78.25L272.424,78.254L20.886,78.25Z" fill="#000000"/>
<path d="M55.296,41.526C55.32,39.686 55.817,37.882 56.742,36.282C57.667,34.682 58.988,33.337 60.584,32.374C59.571,30.952 58.233,29.781 56.678,28.956C55.123,28.13 53.394,27.672 51.627,27.618C47.858,27.229 44.205,29.833 42.284,29.833C40.327,29.833 37.37,27.656 34.186,27.721C32.126,27.786 30.119,28.374 28.36,29.428C26.6,30.482 25.149,31.965 24.147,33.734C19.807,41.114 23.044,51.962 27.202,57.928C29.282,60.849 31.713,64.113 34.895,63.997C38.008,63.87 39.17,62.047 42.928,62.047C46.651,62.047 47.741,63.997 50.987,63.923C54.328,63.87 56.432,60.989 58.439,58.04C59.934,55.958 61.084,53.657 61.847,51.223C59.907,50.417 58.25,49.067 57.085,47.343C55.92,45.619 55.298,43.596 55.296,41.526L55.296,41.526Z" fill="#FFFFFF"/>
<path d="M49.332,23.694C51.314,21.547 52.29,18.787 52.053,16C49.026,16.287 46.23,17.593 44.222,19.658C43.241,20.667 42.489,21.841 42.01,23.112C41.53,24.383 41.334,25.728 41.43,27.068C42.944,27.082 44.442,26.785 45.811,26.201C47.18,25.617 48.384,24.76 49.332,23.694Z" fill="#FFFFFF"/>
<path d="M102.707,53.857L92.12,53.857L89.578,60.635L85.094,60.635L95.121,35.559L99.78,35.559L109.808,60.635L105.247,60.635L102.707,53.857ZM93.217,50.729L101.608,50.729L97.472,39.729L97.356,39.729L93.217,50.729Z" fill="#FFFFFF"/>
<path d="M131.465,51.493C131.465,57.175 128.097,60.825 123.015,60.825C121.727,60.886 120.447,60.618 119.32,60.052C118.193,59.487 117.265,58.646 116.643,57.626L116.547,57.626L116.547,66.682L112.391,66.682L112.391,42.351L116.414,42.351L116.414,45.392L116.49,45.392C117.141,44.377 118.084,43.541 119.22,42.972C120.355,42.402 121.64,42.122 122.938,42.16C128.077,42.16 131.465,45.828 131.465,51.493ZM127.193,51.493C127.193,47.792 125.074,45.358 121.842,45.358C118.666,45.358 116.53,47.843 116.53,51.493C116.53,55.177 118.666,57.644 121.842,57.644C125.074,57.644 127.193,55.228 127.193,51.493Z" fill="#FFFFFF"/>
<path d="M153.754,51.493C153.754,57.175 150.386,60.825 145.304,60.825C144.016,60.886 142.736,60.618 141.609,60.052C140.482,59.487 139.555,58.646 138.932,57.626L138.836,57.626L138.836,66.682L134.68,66.682L134.68,42.351L138.703,42.351L138.703,45.392L138.779,45.392C139.43,44.377 140.373,43.541 141.509,42.972C142.644,42.402 143.929,42.122 145.227,42.16C150.367,42.16 153.754,45.828 153.754,51.493ZM149.482,51.493C149.482,47.792 147.363,45.358 144.131,45.358C140.955,45.358 138.819,47.843 138.819,51.493C138.819,55.177 140.955,57.644 144.131,57.644C147.363,57.644 149.482,55.228 149.482,51.493L149.482,51.493Z" fill="#FFFFFF"/>
<path d="M168.481,53.648C168.789,56.135 171.465,57.768 175.121,57.768C178.625,57.768 181.145,56.135 181.145,53.893C181.145,51.946 179.625,50.781 176.026,49.982L172.426,49.199C167.326,48.087 164.958,45.934 164.958,42.439C164.958,38.112 169.135,35.141 175.065,35.141C180.933,35.141 184.957,38.112 185.092,42.439L180.896,42.439C180.645,39.937 178.354,38.426 175.006,38.426C171.657,38.426 169.366,39.954 169.366,42.179C169.366,43.952 170.829,44.995 174.409,45.793L177.469,46.472C183.168,47.689 185.536,49.755 185.536,53.423C185.536,58.115 181.396,61.053 174.813,61.053C168.654,61.053 164.495,58.184 164.227,53.648L168.481,53.648Z" fill="#FFFFFF"/>
<path d="M194.503,38.027L194.503,42.354L198.354,42.354L198.354,45.326L194.503,45.326L194.503,55.405C194.503,56.971 195.274,57.7 196.967,57.7C197.424,57.693 197.881,57.664 198.334,57.614L198.334,60.568C197.573,60.696 196.8,60.754 196.026,60.741C191.926,60.741 190.327,59.351 190.327,55.805L190.327,45.326L187.383,45.326L187.383,42.354L190.327,42.354L190.327,38.027L194.503,38.027Z" fill="#FFFFFF"/>
<path d="M200.586,51.496C200.586,45.744 204.338,42.129 210.19,42.129C216.061,42.129 219.796,45.744 219.796,51.496C219.796,57.264 216.081,60.863 210.19,60.863C204.301,60.863 200.586,57.264 200.586,51.496ZM215.561,51.496C215.561,47.55 213.558,45.221 210.19,45.221C206.822,45.221 204.821,47.568 204.821,51.496C204.821,55.458 206.822,57.769 210.19,57.769C213.558,57.769 215.561,55.458 215.561,51.496L215.561,51.496Z" fill="#FFFFFF"/>
<path d="M223.227,42.351L227.191,42.351L227.191,45.463L227.287,45.463C227.555,44.491 228.186,43.632 229.073,43.03C229.96,42.429 231.049,42.121 232.158,42.159C232.637,42.158 233.114,42.205 233.582,42.299L233.582,45.81C232.977,45.643 232.346,45.566 231.714,45.583C231.11,45.561 230.508,45.657 229.95,45.865C229.391,46.072 228.889,46.387 228.477,46.787C228.066,47.186 227.755,47.661 227.566,48.18C227.377,48.698 227.315,49.247 227.383,49.789L227.383,60.633L223.227,60.633L223.227,42.351Z" fill="#FFFFFF"/>
<path d="M252.743,55.267C252.184,58.586 248.604,60.863 244.024,60.863C238.133,60.863 234.477,57.3 234.477,51.583C234.477,45.848 238.153,42.129 243.849,42.129C249.451,42.129 252.974,45.604 252.974,51.147L252.974,52.433L238.672,52.433L238.672,52.66C238.606,53.332 238.7,54.01 238.946,54.648C239.193,55.286 239.586,55.869 240.102,56.359C240.617,56.849 241.242,57.234 241.934,57.489C242.627,57.744 243.372,57.863 244.12,57.838C245.102,57.921 246.088,57.716 246.93,57.252C247.773,56.789 248.427,56.093 248.796,55.267L252.743,55.267ZM238.692,49.81L248.816,49.81C248.853,49.205 248.751,48.6 248.517,48.032C248.283,47.464 247.922,46.946 247.455,46.51C246.989,46.074 246.428,45.73 245.807,45.5C245.187,45.269 244.52,45.157 243.849,45.17C243.172,45.166 242.501,45.284 241.875,45.515C241.248,45.747 240.679,46.088 240.2,46.52C239.72,46.951 239.34,47.464 239.081,48.029C238.823,48.593 238.69,49.199 238.692,49.81L238.692,49.81Z" fill="#FFFFFF"/>
<path d="M90.314,20.672L92.136,20.672C92.449,20.707 92.768,20.684 93.071,20.602C93.373,20.521 93.654,20.384 93.896,20.2C94.137,20.016 94.334,19.788 94.473,19.532C94.612,19.276 94.691,18.996 94.705,18.711C94.705,17.577 93.759,16.844 92.156,16.844C91.834,16.803 91.507,16.821 91.194,16.897C90.88,16.972 90.587,17.104 90.331,17.283C90.074,17.463 89.86,17.687 89.702,17.943C89.543,18.198 89.442,18.48 89.406,18.771L87.406,18.771C87.44,18.242 87.595,17.726 87.86,17.254C88.125,16.782 88.495,16.364 88.946,16.026C89.398,15.689 89.922,15.439 90.485,15.292C91.048,15.145 91.639,15.105 92.22,15.173C94.903,15.173 96.792,16.529 96.792,18.481C96.798,19.135 96.556,19.771 96.105,20.283C95.655,20.795 95.023,21.152 94.317,21.294L94.317,21.439C95.155,21.473 95.944,21.805 96.512,22.362C97.08,22.919 97.38,23.657 97.347,24.414C97.285,24.958 97.103,25.485 96.813,25.965C96.522,26.445 96.128,26.868 95.654,27.208C95.18,27.549 94.636,27.801 94.053,27.949C93.469,28.097 92.859,28.139 92.258,28.071C91.656,28.145 91.043,28.109 90.457,27.965C89.87,27.821 89.321,27.571 88.844,27.232C88.366,26.892 87.969,26.469 87.677,25.988C87.384,25.507 87.202,24.977 87.141,24.431L89.172,24.431C89.295,25.608 90.492,26.367 92.258,26.367C94.024,26.367 95.177,25.514 95.177,24.312C95.177,23.093 94.091,22.342 92.194,22.342L90.314,22.342L90.314,20.672Z" fill="#FFFFFF"/>
<path d="M99.656,25.15C99.656,23.479 101.037,22.515 103.481,22.378L106.266,22.233L106.266,21.432C106.266,20.452 105.55,19.898 104.161,19.898C103.028,19.898 102.245,20.273 102.018,20.93L100.053,20.93C100.261,19.335 101.924,18.313 104.257,18.313C106.834,18.313 108.288,19.471 108.288,21.432L108.288,27.775L106.333,27.775L106.333,26.471L106.172,26.471C105.846,26.939 105.389,27.32 104.846,27.576C104.303,27.832 103.695,27.954 103.084,27.928C102.652,27.969 102.216,27.927 101.803,27.806C101.39,27.685 101.01,27.487 100.687,27.226C100.364,26.964 100.106,26.644 99.928,26.286C99.751,25.929 99.658,25.542 99.656,25.15L99.656,25.15ZM106.266,24.357L106.266,23.58L103.755,23.725C102.339,23.811 101.697,24.246 101.697,25.064C101.697,25.9 102.499,26.386 103.603,26.386C103.927,26.416 104.253,26.386 104.564,26.299C104.875,26.213 105.163,26.07 105.411,25.881C105.659,25.692 105.863,25.459 106.01,25.197C106.157,24.935 106.244,24.649 106.266,24.357L106.266,24.357Z" fill="#FFFFFF"/>
<path d="M113.67,20.031L113.67,27.772L111.641,27.772L111.641,18.488L118.411,18.488L118.411,20.03L113.67,20.031Z" fill="#FFFFFF"/>
<path d="M130.711,23.129C130.711,26.078 129.059,27.927 126.463,27.927C125.826,27.967 125.19,27.841 124.629,27.565C124.069,27.288 123.607,26.873 123.299,26.368L123.139,26.368L123.139,30.861L121.109,30.861L121.109,18.491L123.063,18.491L123.063,20.025L123.214,20.025C123.528,19.502 123.996,19.068 124.565,18.77C125.135,18.472 125.785,18.322 126.443,18.337C129.059,18.337 130.711,20.178 130.711,23.129ZM128.624,23.129C128.624,21.168 127.596,19.983 125.877,19.983C124.169,19.983 123.101,21.193 123.101,23.137C123.101,25.072 124.169,26.283 125.868,26.283C127.596,26.283 128.624,25.098 128.624,23.129Z" fill="#FFFFFF"/>
<path d="M133.415,31.097L133.415,29.519C133.635,29.545 133.856,29.556 134.078,29.554C134.51,29.583 134.939,29.466 135.282,29.227C135.625,28.988 135.859,28.643 135.937,28.258L136.089,27.806L132.367,18.488L134.577,18.488L137.155,25.862L137.315,25.862L139.884,18.488L142.036,18.488L138.203,28.155C137.324,30.414 136.352,31.139 134.256,31.139C134.087,31.139 133.605,31.122 133.415,31.097Z" fill="#FFFFFF"/>
<path d="M143.617,25.14L145.638,25.14C145.836,25.958 146.686,26.385 147.874,26.385C149.226,26.385 150.055,25.848 150.055,25.012C150.055,24.117 149.31,23.69 147.874,23.69L146.335,23.69L146.335,22.267L147.847,22.267C149.074,22.267 149.698,21.841 149.698,21.065C149.698,20.383 149.094,19.863 147.847,19.863C146.712,19.863 145.883,20.298 145.751,21.031L143.796,21.031C143.942,20.189 144.448,19.432 145.206,18.924C145.964,18.415 146.912,18.195 147.847,18.312C150.291,18.312 151.69,19.309 151.69,20.878C151.701,21.314 151.546,21.742 151.251,22.087C150.955,22.433 150.537,22.677 150.066,22.778L150.066,22.923C150.627,22.989 151.141,23.237 151.512,23.622C151.883,24.007 152.084,24.502 152.078,25.012C152.078,26.777 150.414,27.945 147.874,27.945C145.629,27.945 143.805,27.015 143.617,25.14Z" fill="#FFFFFF"/>
<path d="M155,27.772L155,18.488L157.011,18.488L157.011,24.874L157.172,24.874L161.911,18.488L163.922,18.488L163.922,27.772L161.911,27.772L161.911,21.352L161.759,21.352L157.011,27.772L155,27.772Z" fill="#FFFFFF"/>
<path d="M175,20.03L171.762,20.03L171.762,27.772L169.73,27.772L169.73,20.03L166.492,20.03L166.492,18.488L175,18.488L175,20.03Z" fill="#FFFFFF"/>
<path d="M185.931,25.265C185.654,26.113 185.057,26.847 184.242,27.338C183.427,27.829 182.447,28.046 181.473,27.951C180.796,27.967 180.123,27.85 179.5,27.607C178.878,27.365 178.322,27.003 177.87,26.547C177.418,26.092 177.081,25.552 176.883,24.967C176.685,24.382 176.631,23.765 176.724,23.159C176.633,22.551 176.689,21.933 176.886,21.346C177.084,20.759 177.419,20.217 177.868,19.757C178.318,19.297 178.871,18.93 179.492,18.68C180.112,18.43 180.785,18.304 181.464,18.309C184.325,18.309 186.054,20.074 186.054,22.989L186.054,23.628L178.793,23.628L178.793,23.731C178.761,24.071 178.808,24.415 178.931,24.738C179.055,25.061 179.252,25.358 179.51,25.608C179.768,25.859 180.081,26.058 180.429,26.192C180.777,26.327 181.153,26.394 181.531,26.39C182.016,26.443 182.508,26.364 182.943,26.163C183.378,25.963 183.737,25.65 183.975,25.265L185.931,25.265ZM178.793,22.273L183.984,22.273C184.01,21.962 183.963,21.649 183.847,21.355C183.731,21.061 183.548,20.792 183.309,20.565C183.071,20.339 182.783,20.16 182.464,20.04C182.145,19.92 181.801,19.861 181.455,19.868C181.104,19.864 180.756,19.923 180.431,20.042C180.105,20.162 179.81,20.339 179.562,20.563C179.314,20.787 179.118,21.054 178.986,21.348C178.854,21.641 178.788,21.956 178.793,22.273L178.793,22.273Z" fill="#FFFFFF"/>
<path d="M194.539,18.488L199.175,18.488C201.187,18.488 202.366,19.408 202.366,20.849C202.369,21.306 202.198,21.75 201.882,22.107C201.566,22.464 201.124,22.712 200.629,22.81L200.629,22.955C201.23,22.989 201.793,23.23 202.202,23.629C202.611,24.027 202.835,24.552 202.828,25.095C202.828,26.715 201.479,27.772 199.222,27.772L194.539,27.772L194.539,18.488ZM196.55,19.895L196.55,22.299L198.562,22.299C199.788,22.299 200.375,21.873 200.375,21.087C200.375,20.364 199.864,19.895 198.787,19.895L196.55,19.895ZM196.55,23.645L196.55,26.366L198.957,26.366C200.156,26.366 200.799,25.887 200.799,25.01C200.799,24.08 200.072,23.646 198.702,23.646L196.55,23.645Z" fill="#FFFFFF"/>
</svg>
