<svg width="272" height="80" viewBox="0 0 272 80" fill="none" xmlns="http://www.w3.org/2000/svg" xmlns:xlink="http://www.w3.org/1999/xlink">
<path d="M261.926,80L10.074,80C4.533,80 0,75.5 0,70L0,10C0,4.5 4.533,0 10.074,0L261.926,0C267.466,0 272,4.5 272,10L272,70C272,75.5 267.466,80 261.926,80Z" fill="#000000"/>
<path d="M261.926,0L10.074,0C4.533,0 0,4.5 0,10L0,70C0,75.5 4.533,80 10.074,80L261.926,80C267.466,80 272,75.5 272,70L272,10C272,4.5 267.466,0 261.926,0L261.926,0ZM261.926,1.6C266.592,1.6 270.388,5.369 270.388,10L270.388,70C270.388,74.632 266.592,78.401 261.926,78.401L10.074,78.401C5.409,78.401 1.612,74.632 1.612,70L1.612,10C1.612,5.369 5.409,1.6 10.074,1.6L261.926,1.6Z" fill="#A6A6A6"/>
<path d="M95.543,20.486C95.543,22.162 95.043,23.496 94.042,24.491C92.905,25.675 91.423,26.267 89.601,26.267C87.856,26.267 86.372,25.667 85.152,24.466C83.93,23.265 83.32,21.776 83.32,19.999C83.32,18.222 83.93,16.734 85.152,15.532C86.372,14.331 87.856,13.73 89.601,13.73C90.467,13.73 91.295,13.899 92.082,14.234C92.869,14.57 93.501,15.016 93.973,15.574L92.91,16.63C92.11,15.681 91.008,15.206 89.601,15.206C88.328,15.206 87.228,15.65 86.299,16.538C85.37,17.428 84.906,18.581 84.906,19.999C84.906,21.418 85.37,22.571 86.299,23.46C87.228,24.349 88.328,24.792 89.601,24.792C90.951,24.792 92.076,24.346 92.977,23.452C93.562,22.87 93.9,22.061 93.991,21.022L89.601,21.022L89.601,19.581L95.459,19.581C95.515,19.894 95.543,20.195 95.543,20.486Z" fill="#FFFFFF"/>
<path d="M95.541,20.487L95.34,20.487C95.338,22.124 94.856,23.396 93.898,24.351L93.896,24.352L93.895,24.354C92.794,25.497 91.378,26.066 89.599,26.068C87.901,26.066 86.479,25.491 85.292,24.325C84.108,23.157 83.522,21.731 83.52,20C83.522,18.268 84.108,16.843 85.292,15.676C86.479,14.509 87.901,13.934 89.599,13.931C90.439,13.931 91.238,14.094 92.001,14.418C92.764,14.745 93.367,15.173 93.817,15.704L93.971,15.575L93.829,15.434L92.766,16.49L92.908,16.63L93.064,16.502C92.226,15.506 91.05,15.004 89.599,15.007C88.279,15.005 87.118,15.474 86.158,16.396C85.188,17.32 84.701,18.538 84.703,20C84.701,21.462 85.188,22.68 86.158,23.605C87.118,24.527 88.279,24.995 89.599,24.993C90.994,24.996 92.182,24.526 93.118,23.595C93.743,22.973 94.097,22.111 94.19,21.04L94.209,20.823L89.8,20.823L89.8,19.781L95.457,19.781L95.457,19.581L95.259,19.616C95.314,19.92 95.34,20.208 95.34,20.487L95.743,20.487C95.743,20.183 95.714,19.87 95.655,19.546L95.625,19.381L89.398,19.381L89.398,21.223L93.989,21.223L93.989,21.023L93.788,21.006C93.7,22.012 93.377,22.77 92.833,23.312C91.967,24.168 90.905,24.591 89.599,24.593C88.374,24.591 87.334,24.173 86.438,23.317C85.55,22.465 85.108,21.377 85.106,20C85.108,18.623 85.55,17.535 86.438,16.683C87.334,15.827 88.374,15.409 89.599,15.407C90.961,15.41 91.99,15.857 92.754,16.759L92.896,16.927L94.114,15.717L94.244,15.587L94.125,15.447C93.63,14.861 92.971,14.396 92.16,14.051C91.348,13.705 90.491,13.531 89.599,13.531C87.808,13.53 86.262,14.155 85.008,15.392C83.75,16.626 83.115,18.177 83.117,20C83.115,21.822 83.75,23.374 85.009,24.609C86.262,25.845 87.808,26.47 89.599,26.468C91.464,26.47 93.012,25.855 94.186,24.63L94.04,24.492L94.183,24.634C95.226,23.599 95.744,22.2 95.743,20.487L95.541,20.487L95.541,20.487ZM104.828,15.474L99.323,15.474L99.323,19.279L104.288,19.279L104.288,20.721L99.323,20.721L99.323,24.526L104.828,24.526L104.828,26L97.771,26L97.771,14L104.828,14L104.828,15.474Z" fill="#FFFFFF"/>
<path d="M104.829,15.475L104.829,15.275L99.122,15.275L99.122,19.48L104.087,19.48L104.087,20.521L99.122,20.522L99.122,24.727L104.628,24.727L104.628,25.801L97.973,25.801L97.973,14.201L104.628,14.201L104.628,15.475L104.829,15.475L104.829,15.275L104.829,15.475L105.031,15.475L105.031,13.801L97.57,13.801L97.57,26.201L105.031,26.201L105.031,24.327L99.525,24.327L99.525,20.922L104.49,20.922L104.49,19.08L99.525,19.08L99.525,15.675L105.031,15.675L105.031,15.475L104.829,15.475L104.829,15.475ZM111.38,26.001L109.825,26.001L109.825,15.475L106.449,15.475L106.449,14.001L114.756,14.001L114.756,15.475L111.38,15.475L111.38,26.001Z" fill="#FFFFFF"/>
<path d="M111.374,26.001L111.374,25.801L110.022,25.801L110.022,15.275L106.645,15.275L106.645,14.201L114.549,14.201L114.549,15.275L111.173,15.275L111.173,26.001L111.374,26.001L111.374,25.801L111.374,26.001L111.576,26.001L111.576,15.675L114.952,15.675L114.952,13.801L106.242,13.801L106.242,15.675L109.619,15.675L109.619,26.201L111.576,26.201L111.576,26.001L111.374,26.001L111.374,26.001ZM120.762,26.001L120.762,14.001L122.314,14.001L122.314,26.001L120.762,26.001Z" fill="#FFFFFF"/>
<path d="M120.764,26.001L120.965,26.001L120.965,14.201L122.115,14.201L122.115,25.801L120.764,25.801L120.764,26.001L120.965,26.001L120.764,26.001L120.764,26.201L122.518,26.201L122.518,13.801L120.563,13.801L120.563,26.201L120.764,26.201L120.764,26.001L120.764,26.001ZM129.207,26.001L127.653,26.001L127.653,15.475L124.277,15.475L124.277,14.001L132.584,14.001L132.584,15.475L129.207,15.475L129.207,26.001Z" fill="#FFFFFF"/>
<path d="M129.21,25.999L129.21,25.799L127.857,25.799L127.857,15.274L124.481,15.274L124.481,14.199L132.385,14.199L132.385,15.274L129.009,15.274L129.009,25.999L129.21,25.999L129.21,25.799L129.21,25.999L129.412,25.999L129.412,15.674L132.788,15.674L132.788,13.799L124.078,13.799L124.078,15.673L127.454,15.673L127.454,26.199L129.412,26.199L129.412,25.999L129.21,25.999L129.21,25.999ZM140.596,23.444C141.49,24.343 142.585,24.792 143.88,24.792C145.175,24.792 146.27,24.343 147.164,23.444C148.059,22.545 148.508,21.395 148.508,19.999C148.508,18.603 148.059,17.454 147.164,16.555C146.27,15.656 145.175,15.206 143.88,15.206C142.585,15.206 141.49,15.656 140.596,16.555C139.702,17.454 139.254,18.603 139.254,19.999C139.254,21.395 139.702,22.545 140.596,23.444ZM148.313,24.449C147.124,25.662 145.646,26.267 143.88,26.267C142.112,26.267 140.635,25.662 139.449,24.449C138.26,23.237 137.668,21.753 137.668,19.999C137.668,18.245 138.26,16.762 139.449,15.55C140.635,14.337 142.112,13.73 143.88,13.73C145.637,13.73 147.111,14.34 148.305,15.558C149.497,16.776 150.094,18.256 150.094,19.999C150.094,21.753 149.499,23.237 148.313,24.449Z" fill="#FFFFFF"/>
<path d="M140.59,23.445L140.447,23.585C141.375,24.52 142.533,24.996 143.874,24.993C145.216,24.996 146.375,24.52 147.301,23.585C148.235,22.649 148.705,21.438 148.704,20C148.705,18.562 148.235,17.351 147.301,16.415C146.375,15.48 145.216,15.005 143.874,15.007C142.533,15.005 141.375,15.48 140.447,16.415C139.515,17.351 139.044,18.562 139.047,20C139.044,21.438 139.515,22.649 140.447,23.585L140.59,23.445L140.733,23.304C139.879,22.441 139.451,21.355 139.45,20C139.451,18.646 139.879,17.56 140.733,16.696C141.596,15.833 142.626,15.409 143.874,15.407C145.122,15.409 146.154,15.833 147.015,16.696C147.871,17.56 148.298,18.646 148.3,20C148.298,21.355 147.871,22.441 147.015,23.304C146.154,24.167 145.122,24.591 143.874,24.593C142.626,24.591 141.596,24.167 140.733,23.304L140.59,23.445ZM148.307,24.449L148.163,24.31C147.008,25.485 145.595,26.066 143.874,26.068C142.153,26.066 140.74,25.485 139.587,24.31L139.582,24.304L139.587,24.31C138.434,23.131 137.866,21.71 137.864,20C137.866,18.291 138.434,16.869 139.587,15.69C140.74,14.515 142.153,13.934 143.874,13.931C145.584,13.934 146.993,14.517 148.155,15.698C149.312,16.883 149.884,18.302 149.887,20C149.884,21.71 149.314,23.131 148.163,24.31L148.307,24.449L148.452,24.588C149.673,23.343 150.291,21.799 150.29,20C150.291,18.212 149.671,16.67 148.444,15.42C147.216,14.164 145.678,13.529 143.874,13.531C142.061,13.529 140.519,14.161 139.299,15.412L139.299,15.411C138.075,16.657 137.459,18.202 137.461,20C137.459,21.799 138.075,23.343 139.299,24.589L139.304,24.595L139.299,24.588C140.519,25.839 142.061,26.47 143.874,26.468C145.687,26.47 147.23,25.839 148.452,24.588L148.307,24.449L148.307,24.449ZM152.268,26L152.268,14L154.159,14L160.034,23.335L160.101,23.335L160.034,21.023L160.034,14L161.588,14L161.588,26L159.967,26L153.82,16.212L153.753,16.212L153.82,18.526L153.82,26L152.268,26Z" fill="#FFFFFF"/>
<path d="M152.274,26.001L152.476,26.001L152.476,14.201L154.053,14.201L159.928,23.536L160.314,23.536L160.241,21.02L160.241,14.201L161.393,14.201L161.393,25.801L160.085,25.801L153.938,16.013L153.552,16.013L153.625,18.53L153.625,25.801L152.274,25.801L152.274,26.001L152.476,26.001L152.274,26.001L152.274,26.201L154.028,26.201L154.028,18.523L153.961,16.208L153.759,16.213L153.759,16.413L153.826,16.413L153.826,16.213L153.655,16.32L159.861,26.201L161.796,26.201L161.796,13.801L159.839,13.801L159.839,21.026L159.905,23.341L160.107,23.336L160.107,23.136L160.04,23.136L160.04,23.336L160.211,23.23L154.276,13.801L152.073,13.801L152.073,26.201L152.274,26.201L152.274,26.001L152.274,26.001ZM215.46,60.001L219.22,60.001L219.22,34.998L215.46,34.998L215.46,60.001ZM249.323,44.005L245.013,54.845L244.884,54.845L240.412,44.005L236.362,44.005L243.069,59.155L239.245,67.583L243.168,67.583L253.504,44.005L249.323,44.005ZM228.002,57.161C226.769,57.161 225.053,56.55 225.053,55.038C225.053,53.108 227.192,52.368 229.038,52.368C230.692,52.368 231.468,52.722 232.473,53.205C232.181,55.52 230.172,57.161 228.002,57.161L228.002,57.161ZM228.456,43.458C225.734,43.458 222.915,44.648 221.748,47.286L225.085,48.669C225.798,47.286 227.126,46.835 228.52,46.835C230.464,46.835 232.441,47.994 232.473,50.052L232.473,50.309C231.792,49.923 230.335,49.345 228.552,49.345C224.956,49.345 221.293,51.306 221.293,54.973C221.293,58.319 224.243,60.474 227.547,60.474C230.076,60.474 231.468,59.348 232.344,58.03L232.473,58.03L232.473,59.959L236.102,59.959L236.102,50.373C236.102,45.935 232.765,43.458 228.456,43.458L228.456,43.458ZM205.221,47.048L199.873,47.048L199.873,38.478L205.221,38.478C208.031,38.478 209.627,40.788 209.627,42.763C209.627,44.701 208.031,47.048 205.221,47.048ZM205.124,34.998L196.116,34.998L196.116,60.001L199.873,60.001L199.873,50.528L205.124,50.528C209.291,50.528 213.387,47.534 213.387,42.763C213.387,37.993 209.291,34.998 205.124,34.998L205.124,34.998ZM156.001,57.166C153.404,57.166 151.229,55.007 151.229,52.042C151.229,49.046 153.404,46.855 156.001,46.855C158.565,46.855 160.578,49.046 160.578,52.042C160.578,55.007 158.565,57.166 156.001,57.166L156.001,57.166ZM160.318,45.405L160.188,45.405C159.344,44.406 157.72,43.504 155.676,43.504C151.391,43.504 147.464,47.241 147.464,52.042C147.464,56.811 151.391,60.516 155.676,60.516C157.72,60.516 159.344,59.614 160.188,58.584L160.318,58.584L160.318,59.808C160.318,63.063 158.565,64.802 155.741,64.802C153.437,64.802 152.008,63.159 151.423,61.773L148.146,63.127C149.087,65.382 151.586,68.153 155.741,68.153C160.156,68.153 163.888,65.575 163.888,59.292L163.888,44.02L160.318,44.02L160.318,45.405ZM166.485,60.001L170.25,60.001L170.25,34.998L166.485,34.998L166.485,60.001ZM175.801,51.752C175.704,48.466 178.365,46.791 180.28,46.791C181.774,46.791 183.04,47.531 183.461,48.595L175.801,51.752ZM187.486,48.917C186.773,47.016 184.597,43.504 180.15,43.504C175.736,43.504 172.068,46.952 172.068,52.01C172.068,56.779 175.704,60.516 180.572,60.516C184.5,60.516 186.773,58.132 187.714,56.747L184.793,54.813C183.819,56.231 182.488,57.166 180.572,57.166C178.657,57.166 177.294,56.295 176.417,54.588L187.875,49.884L187.486,48.917ZM96.199,46.114L96.199,49.723L104.898,49.723C104.638,51.752 103.956,53.234 102.917,54.266C101.652,55.523 99.672,56.908 96.199,56.908C90.843,56.908 86.656,52.623 86.656,47.306C86.656,41.99 90.843,37.704 96.199,37.704C99.088,37.704 101.197,38.832 102.755,40.282L105.32,37.737C103.145,35.674 100.256,34.095 96.199,34.095C88.863,34.095 82.695,40.024 82.695,47.306C82.695,54.588 88.863,60.516 96.199,60.516C100.159,60.516 103.145,59.228 105.482,56.811C107.884,54.427 108.631,51.076 108.631,48.37C108.631,47.531 108.566,46.759 108.435,46.114L96.199,46.114ZM118.521,57.166C115.923,57.166 113.684,55.039 113.684,52.01C113.684,48.949 115.923,46.855 118.521,46.855C121.117,46.855 123.357,48.949 123.357,52.01C123.357,55.039 121.117,57.166 118.521,57.166ZM118.521,43.504C113.781,43.504 109.918,47.08 109.918,52.01C109.918,56.908 113.781,60.516 118.521,60.516C123.259,60.516 127.122,56.908 127.122,52.01C127.122,47.08 123.259,43.504 118.521,43.504ZM137.285,57.166C134.689,57.166 132.449,55.039 132.449,52.01C132.449,48.949 134.689,46.855 137.285,46.855C139.882,46.855 142.121,48.949 142.121,52.01C142.121,55.039 139.882,57.166 137.285,57.166L137.285,57.166ZM137.285,43.504C132.546,43.504 128.684,47.08 128.684,52.01C128.684,56.908 132.546,60.516 137.285,60.516C142.024,60.516 145.887,56.908 145.887,52.01C145.887,47.08 142.024,43.504 137.285,43.504L137.285,43.504Z" fill="#FFFFFF"/>
<path d="M21.173,15.223C20.497,15.829 20.094,16.839 20.094,18.18L20.094,17.877L20.094,62.119L20.094,61.827C20.094,63.066 20.44,64.022 21.026,64.638L21.176,64.78L21.176,64.78C21.65,65.206 22.259,65.431 22.956,65.43C23.638,65.43 24.404,65.215 25.213,64.759L54.459,48.265L64.505,42.598C65.78,41.879 66.497,40.951 66.616,40.005L66.616,40.002C66.497,39.054 65.78,38.127 64.505,37.407L54.458,31.741L25.214,15.247C24.403,14.791 23.635,14.574 22.952,14.574C22.256,14.574 21.648,14.799 21.174,15.223L21.173,15.223Z" fill="#34C998"/>
<path d="M21.176,15.221L21.026,15.363C20.44,15.979 20.094,16.935 20.094,18.173L20.094,17.882L20.094,62.113L20.094,61.821C20.094,63.162 20.497,64.172 21.173,64.777L46.137,39.998L21.176,15.221Z" fill="url(#pf_0_298_2717)"/>
<path d="M54.455,31.742L46.133,40.005L54.454,48.266L64.501,42.6C65.776,41.88 66.493,40.953 66.612,40.005L66.612,40.002C66.493,39.056 65.776,38.128 64.501,37.409L54.455,31.742Z" fill="url(#pf_0_298_2718)"/>
<path d="M22.952,40.002C22.255,40.001 21.646,40.227 21.172,40.652L21.172,40.652L46.133,65.43L54.455,57.167L25.209,40.673C24.4,40.217 23.633,40.002 22.952,40.002Z" fill="url(#pf_0_298_2719)"/>
<path d="M46.135,14.572L21.172,39.351C21.646,39.775 22.254,40 22.951,40C23.634,40 24.401,39.784 25.212,39.327L54.456,22.833L46.135,14.572Z" fill="url(#pf_0_298_2720)"/>
<path d="M22.954,48.264C22.257,48.264 21.648,48.49 21.173,48.915L21.172,48.914C21.17,48.916 21.168,48.918 21.166,48.92L21.036,49.045C21.032,49.049 21.028,49.054 21.023,49.058L21.173,49.207C21.648,48.782 22.256,48.556 22.953,48.557C23.635,48.557 24.401,48.773 25.211,49.228L54.456,65.723L54.643,65.537L54.454,65.43L25.21,48.936C24.473,48.521 23.772,48.305 23.138,48.269C23.077,48.266 23.016,48.264 22.954,48.264Z" fill="url(#pf_0_298_2721)"/>
<path d="M21.026,61.828C20.44,62.444 20.094,63.399 20.094,64.638L20.094,64.93C20.094,63.692 20.44,62.735 21.026,62.12L21.176,61.977L21.026,61.828Z" fill="url(#pf_0_298_2722)"/>
<path d="M54.648,40.004L54.461,40.19L64.507,45.856C65.782,46.576 66.499,47.504 66.618,48.449C66.618,48.102 66.54,47.755 66.385,47.418C66.073,46.737 65.447,46.094 64.507,45.564L54.648,40.004Z" fill="url(#pf_0_298_2723)"/>
<path d="M66.619,31.554C66.499,32.501 65.783,33.429 64.507,34.148L54.461,39.814L54.648,40L54.649,40L64.507,34.44C65.914,33.646 66.618,32.6 66.619,31.554Z" fill="url(#pf_0_298_2724)"/>
<path d="M20.094,15.077L20.094,15.382C20.094,15.492 20.097,15.6 20.102,15.705L20.102,15.709C20.102,15.711 20.102,15.712 20.103,15.714L20.103,15.726C20.164,16.792 20.497,17.624 21.026,18.18L21.173,18.033C20.497,17.427 20.094,16.417 20.094,15.077Z" fill="url(#pf_0_298_2725)"/>
<path d="M54.455,14.283L25.211,30.777C24.4,31.234 23.633,31.45 22.949,31.45C22.253,31.45 21.645,31.225 21.171,30.801L21.023,30.948C21.069,30.996 21.117,31.043 21.167,31.087C21.168,31.089 21.171,31.091 21.172,31.092C21.643,31.513 22.244,31.738 22.935,31.742L22.949,31.742C23.633,31.742 24.4,31.526 25.211,31.069L54.643,14.469L54.643,14.469L54.455,14.283Z" fill="url(#pf_0_298_2726)"/>
<defs>
<linearGradient id="pf_0_298_2717" x1="36.047" y1="62.581" x2="26.875" y2="29.016" gradientUnits="userSpaceOnUse">
<stop stop-color="#00A0FF"/>
<stop offset="0.007" stop-color="#00A1FF"/>
<stop offset="0.26" stop-color="#00BEFF"/>
<stop offset="0.512" stop-color="#00D2FF"/>
<stop offset="0.76" stop-color="#00DFFF"/>
<stop offset="1" stop-color="#00E3FF"/>
</linearGradient>
<linearGradient id="pf_0_298_2718" x1="68.167" y1="40.147" x2="19.414" y2="40.147" gradientUnits="userSpaceOnUse">
<stop stop-color="#FFE000"/>
<stop offset="0.409" stop-color="#FFBD00"/>
<stop offset="0.775" stop-color="#FFA500"/>
<stop offset="1" stop-color="#FF9C00"/>
</linearGradient>
<linearGradient id="pf_0_298_2719" x1="50.036" y1="57.574" x2="4.371" y2="30.833" gradientUnits="userSpaceOnUse">
<stop stop-color="#FF3A44"/>
<stop offset="1" stop-color="#C31162"/>
</linearGradient>
<linearGradient id="pf_0_298_2720" x1="14.738" y1="43.024" x2="35.099" y2="31.084" gradientUnits="userSpaceOnUse">
<stop stop-color="#32A071"/>
<stop offset="0.068" stop-color="#2DA771"/>
<stop offset="0.476" stop-color="#15CF74"/>
<stop offset="0.801" stop-color="#06E775"/>
<stop offset="1" stop-color="#00F076"/>
</linearGradient>
<linearGradient id="pf_0_298_2721" x1="50.02" y1="60.398" x2="4.166" y2="47.901" gradientUnits="userSpaceOnUse">
<stop stop-color="#CC2E36"/>
<stop offset="1" stop-color="#9C0E4E"/>
</linearGradient>
<linearGradient id="pf_0_298_2722" x1="23.419" y1="109.337" x2="19.376" y2="75.772" gradientUnits="userSpaceOnUse">
<stop stop-color="#008DE0"/>
<stop offset="0.007" stop-color="#008DE0"/>
<stop offset="0.26" stop-color="#00A7E0"/>
<stop offset="0.512" stop-color="#00B8E0"/>
<stop offset="0.76" stop-color="#00C4E0"/>
<stop offset="1" stop-color="#00C7E0"/>
</linearGradient>
<linearGradient id="pf_0_298_2723" x1="68.173" y1="48.451" x2="19.42" y2="48.451" gradientUnits="userSpaceOnUse">
<stop stop-color="#E0C500"/>
<stop offset="0.409" stop-color="#E0A600"/>
<stop offset="0.775" stop-color="#E09100"/>
<stop offset="1" stop-color="#E08900"/>
</linearGradient>
<linearGradient id="pf_0_298_2724" x1="68.174" y1="31.552" x2="19.421" y2="31.552" gradientUnits="userSpaceOnUse">
<stop stop-color="#FFE840"/>
<stop offset="0.409" stop-color="#FFCE40"/>
<stop offset="0.775" stop-color="#FFBC40"/>
<stop offset="1" stop-color="#FFB540"/>
</linearGradient>
<linearGradient id="pf_0_298_2725" x1="23.399" y1="15.802" x2="19.384" y2="-16.261" gradientUnits="userSpaceOnUse">
<stop stop-color="#40B8FF"/>
<stop offset="0.007" stop-color="#40B9FF"/>
<stop offset="0.26" stop-color="#40CEFF"/>
<stop offset="0.512" stop-color="#40DDFF"/>
<stop offset="0.76" stop-color="#40E7FF"/>
<stop offset="1" stop-color="#40EAFF"/>
</linearGradient>
<linearGradient id="pf_0_298_2726" x1="14.701" y1="29.234" x2="35.176" y2="23.653" gradientUnits="userSpaceOnUse">
<stop stop-color="#65B895"/>
<stop offset="0.068" stop-color="#62BD95"/>
<stop offset="0.476" stop-color="#50DB97"/>
<stop offset="0.801" stop-color="#44ED98"/>
<stop offset="1" stop-color="#40F498"/>
</linearGradient>
</defs>
</svg>
