<svg width="78" height="92" viewBox="0 0 78 92" fill="none" xmlns="http://www.w3.org/2000/svg" xmlns:xlink="http://www.w3.org/1999/xlink">
<path d="M38,26.5C39.187,26.5 40.347,26.148 41.333,25.489C42.32,24.83 43.089,23.892 43.543,22.796C43.997,21.7 44.116,20.493 43.885,19.329C43.653,18.166 43.082,17.096 42.243,16.257C41.404,15.418 40.334,14.847 39.171,14.615C38.007,14.384 36.8,14.503 35.704,14.957C34.608,15.411 33.67,16.18 33.011,17.167C32.352,18.153 32,19.313 32,20.5C32,22.091 32.632,23.617 33.757,24.743C34.883,25.868 36.409,26.5 38,26.5ZM38,17.5C38.593,17.5 39.173,17.676 39.667,18.006C40.16,18.335 40.545,18.804 40.772,19.352C40.999,19.9 41.058,20.503 40.942,21.085C40.827,21.667 40.541,22.202 40.121,22.621C39.702,23.041 39.167,23.327 38.585,23.442C38.003,23.558 37.4,23.499 36.852,23.272C36.304,23.045 35.835,22.66 35.506,22.167C35.176,21.673 35,21.093 35,20.5C35,19.704 35.316,18.941 35.879,18.379C36.441,17.816 37.204,17.5 38,17.5L38,17.5Z" fill="#80A948"/>
<rect  x="36.5" y="41.5" width="3" height="3" fill="#80A948"/>
<rect  x="36.5" y="47.5" width="3" height="10.5" fill="#80A948"/>
<path d="M76.473,82.555C76.333,82.383 76.157,82.244 75.957,82.148C75.758,82.052 75.539,82.002 75.318,82L73.998,82L73.998,41.5C73.998,41.102 73.84,40.721 73.558,40.439C73.277,40.158 72.895,40 72.498,40L63.018,40L61.983,32.305C61.953,32.063 61.863,31.832 61.721,31.633C61.58,31.434 61.391,31.273 61.173,31.165L52.938,27.04C52.383,12.895 39.528,1.825 38.973,1.36C38.701,1.128 38.355,1 37.998,1C37.64,1 37.294,1.128 37.023,1.36C36.468,1.825 23.613,12.895 23.058,27.04L14.823,31.165C14.604,31.273 14.415,31.434 14.274,31.633C14.132,31.832 14.043,32.063 14.013,32.305L12.978,40L3.498,40C3.1,40 2.718,40.158 2.437,40.439C2.156,40.721 1.998,41.102 1.998,41.5L1.998,82L0.678,82C0.456,82.002 0.238,82.052 0.038,82.148C-0.162,82.244 -0.338,82.383 -0.477,82.555C-0.619,82.729 -0.72,82.932 -0.772,83.151C-0.824,83.369 -0.826,83.596 -0.777,83.815L0.528,89.815C0.6,90.151 0.785,90.452 1.053,90.668C1.32,90.884 1.654,91.001 1.998,91L73.998,91C74.341,91.001 74.675,90.884 74.943,90.668C75.21,90.452 75.395,90.151 75.468,89.815L76.773,83.815C76.821,83.596 76.819,83.369 76.767,83.151C76.716,82.932 76.615,82.729 76.473,82.555L76.473,82.555ZM52.923,30.385L59.118,33.49L61.788,53.5L58.488,53.5L54.378,43.915C54.263,43.644 54.071,43.413 53.825,43.25C53.58,43.087 53.292,43 52.998,43L50.493,43C51.927,38.94 52.746,34.688 52.923,30.385L52.923,30.385ZM37.998,4.54C41.013,7.405 49.998,16.93 49.998,28C50.111,33.858 48.875,39.663 46.383,44.965C45.078,39.37 41.868,35.5 37.998,35.5C34.128,35.5 30.918,39.37 29.613,44.965C27.121,39.663 25.884,33.858 25.998,28C25.998,16.945 34.983,7.42 37.998,4.54L37.998,4.54ZM37.998,61.975C36.093,60.16 31.998,55.63 31.998,50.5C31.998,43.435 35.163,38.5 37.998,38.5C40.833,38.5 43.998,43.435 43.998,50.5C43.998,55.63 39.903,60.16 37.998,61.975ZM52.998,61L52.998,76L22.998,76L22.998,61L33.093,61C34.266,62.523 35.593,63.92 37.053,65.17C37.321,65.384 37.654,65.5 37.998,65.5C38.341,65.5 38.674,65.384 38.943,65.17C40.402,63.92 41.73,62.523 42.903,61L52.998,61ZM16.878,33.49L23.073,30.385C23.25,34.688 24.069,38.94 25.503,43L22.998,43C22.703,43 22.415,43.087 22.17,43.25C21.924,43.413 21.732,43.644 21.618,43.915L17.508,53.5L14.208,53.5L16.878,33.49ZM4.998,43L12.588,43L11.013,54.805C10.985,55.017 11.003,55.232 11.065,55.436C11.127,55.641 11.232,55.83 11.373,55.99C11.512,56.152 11.685,56.281 11.879,56.369C12.073,56.457 12.284,56.502 12.498,56.5L18.498,56.5C18.792,56.5 19.08,56.413 19.325,56.25C19.571,56.088 19.763,55.856 19.878,55.585L23.988,46L26.763,46C27.401,47.298 28.159,48.533 29.028,49.69C29.013,49.96 28.998,50.23 28.998,50.5C29.059,53.138 29.786,55.718 31.113,58L21.498,58C21.1,58 20.718,58.158 20.437,58.439C20.156,58.721 19.998,59.102 19.998,59.5L19.998,77.5C19.998,77.898 20.156,78.279 20.437,78.561C20.718,78.842 21.1,79 21.498,79L54.498,79C54.895,79 55.277,78.842 55.558,78.561C55.84,78.279 55.998,77.898 55.998,77.5L55.998,59.5C55.998,59.102 55.84,58.721 55.558,58.439C55.277,58.158 54.895,58 54.498,58L44.883,58C46.209,55.718 46.936,53.138 46.998,50.5C46.998,50.23 46.983,49.96 46.968,49.69C47.836,48.533 48.594,47.298 49.233,46L52.008,46L56.118,55.585C56.232,55.856 56.424,56.088 56.67,56.25C56.915,56.413 57.203,56.5 57.498,56.5L63.498,56.5C63.711,56.502 63.922,56.457 64.116,56.369C64.311,56.281 64.483,56.152 64.623,55.99C64.764,55.83 64.868,55.641 64.931,55.436C64.993,55.232 65.011,55.017 64.983,54.805L63.408,43L70.998,43L70.998,82L42.498,82C42.1,82 41.718,82.158 41.437,82.439C41.156,82.721 40.998,83.102 40.998,83.5L34.998,83.5C34.998,83.102 34.84,82.721 34.558,82.439C34.277,82.158 33.895,82 33.498,82L4.998,82L4.998,43ZM72.798,88L3.198,88L2.553,85L31.998,85C31.998,85.398 32.156,85.779 32.437,86.061C32.718,86.342 33.1,86.5 33.498,86.5L42.498,86.5C42.895,86.5 43.277,86.342 43.558,86.061C43.84,85.779 43.998,85.398 43.998,85L73.443,85L72.798,88Z" fill="#80A948"/>
<rect  x="59" y="64" width="9" height="3" fill="#80A948"/>
<path d="M60.5,79L66.5,79C66.898,79 67.279,78.842 67.561,78.561C67.842,78.279 68,77.898 68,77.5L68,71.5C68,71.102 67.842,70.721 67.561,70.439C67.279,70.158 66.898,70 66.5,70L60.5,70C60.102,70 59.721,70.158 59.439,70.439C59.158,70.721 59,71.102 59,71.5L59,77.5C59,77.898 59.158,78.279 59.439,78.561C59.721,78.842 60.102,79 60.5,79ZM62,73L65,73L65,76L62,76L62,73Z" fill="#80A948"/>
<rect  x="8" y="64" width="9" height="3" fill="#80A948"/>
<path d="M15.5,70L9.5,70C9.102,70 8.721,70.158 8.439,70.439C8.158,70.721 8,71.102 8,71.5L8,77.5C8,77.898 8.158,78.279 8.439,78.561C8.721,78.842 9.102,79 9.5,79L15.5,79C15.898,79 16.279,78.842 16.561,78.561C16.842,78.279 17,77.898 17,77.5L17,71.5C17,71.102 16.842,70.721 16.561,70.439C16.279,70.158 15.898,70 15.5,70ZM14,76L11,76L11,73L14,73L14,76Z" fill="#80A948"/>
<path d="M56,10L59,10L59,7L62,7L62,4L59,4L59,1L56,1L56,4L53,4L53,7L56,7L56,10Z" fill="#80A948"/>
<path d="M68,19L71,19L71,16L74,16L74,13L71,13L71,10L68,10L68,13L65,13L65,16L68,16L68,19Z" fill="#80A948"/>
<path d="M17,10L20,10L20,7L23,7L23,4L20,4L20,1L17,1L17,4L14,4L14,7L17,7L17,10Z" fill="#80A948"/>
<path d="M5,19L8,19L8,16L11,16L11,13L8,13L8,10L5,10L5,13L2,13L2,16L5,16L5,19Z" fill="#80A948"/>
</svg>
