<svg width="40" height="40" viewBox="0 0 40 40" fill="none" xmlns="http://www.w3.org/2000/svg" xmlns:xlink="http://www.w3.org/1999/xlink">
<path d="M6.002,5.998C9.584,2.417 14.536,0.199 20.003,0.199C25.47,0.199 30.423,2.417 34.004,5.998C37.585,9.58 39.803,14.532 39.803,19.999C39.803,25.466 37.585,30.419 34.004,34C30.423,37.581 25.47,39.799 20.003,39.799C14.536,39.799 9.584,37.581 6.002,34C2.421,30.419 0.203,25.466 0.203,19.999C0.203,14.532 2.421,9.58 6.002,5.998ZM21.803,35.999C21.803,31.732 20.301,27.816 17.798,24.75L21.003,21.545L31.182,31.724C28.681,34.109 25.422,35.701 21.802,36.101L21.803,35.999ZM18.203,35.999C18.203,32.727 17.096,29.713 15.236,27.312L9.891,32.656C12.222,34.522 15.078,35.755 18.202,36.1L18.203,35.999ZM4.003,21.799C7.275,21.799 10.289,22.906 12.69,24.766L7.345,30.111C5.48,27.78 4.247,24.924 3.902,21.8L4.003,21.799ZM21.003,16.454L24.208,13.249C22.061,10.62 20.651,7.366 20.293,3.802C20.196,3.8 20.1,3.799 20.003,3.799C16.691,3.799 13.613,4.792 11.047,6.498L21.003,16.454ZM30.115,7.341L26.77,10.687C25.353,8.858 24.374,6.675 23.987,4.292C26.259,4.866 28.339,5.921 30.115,7.341ZM35.71,16.015C33.327,15.628 31.144,14.649 29.315,13.232L32.66,9.887C34.081,11.663 35.136,13.743 35.71,16.015ZM23.548,18.999L26.753,15.794C29.382,17.941 32.636,19.351 36.201,19.709C36.202,19.806 36.203,19.902 36.203,19.999C36.203,23.311 35.211,26.39 33.505,28.956L23.548,18.999ZM15.252,22.204L18.457,18.999L8.278,8.82C5.893,11.321 4.302,14.58 3.902,18.199L4.003,18.199C8.27,18.199 12.186,19.701 15.252,22.204Z" clip-rule="evenodd" fill-rule="evenodd" fill="#FFBA00"/>
</svg>
