<svg width="40" height="32" viewBox="0 0 40 32" fill="none" xmlns="http://www.w3.org/2000/svg" xmlns:xlink="http://www.w3.org/1999/xlink">
<path d="M11.603,0.199L11.528,0.199L11.528,0.199C9.912,0.199 8.59,0.199 7.516,0.287C6.404,0.378 5.4,0.572 4.462,1.049C2.994,1.797 1.801,2.99 1.053,4.458C0.575,5.396 0.382,6.4 0.291,7.512C0.203,8.586 0.203,9.908 0.203,11.524L0.203,11.524L0.203,11.599L0.203,20.399L0.203,20.475L0.203,20.475C0.203,22.091 0.203,23.412 0.291,24.487C0.382,25.598 0.575,26.603 1.053,27.54C1.801,29.008 2.994,30.201 4.462,30.949C5.4,31.427 6.404,31.621 7.516,31.711C8.59,31.799 9.912,31.799 11.528,31.799L11.603,31.799L28.403,31.799L28.479,31.799C30.095,31.799 31.416,31.799 32.491,31.711C33.602,31.621 34.607,31.427 35.544,30.949C37.012,30.201 38.205,29.008 38.953,27.54C39.431,26.603 39.625,25.598 39.715,24.487C39.803,23.412 39.803,22.091 39.803,20.475L39.803,20.399L39.803,11.599L39.803,11.524C39.803,9.908 39.803,8.586 39.715,7.512C39.625,6.4 39.431,5.396 38.953,4.458C38.205,2.99 37.012,1.797 35.544,1.049C34.607,0.572 33.602,0.378 32.491,0.287C31.416,0.199 30.095,0.199 28.479,0.199L28.479,0.199L28.403,0.199L11.603,0.199ZM6.764,4.024C7.036,3.961 7.373,3.911 7.809,3.875C8.719,3.801 9.893,3.799 11.603,3.799L28.403,3.799C30.113,3.799 31.287,3.801 32.197,3.875C32.634,3.911 32.971,3.961 33.242,4.024L25.224,11.039C24.068,12.051 23.277,12.741 22.618,13.234C21.977,13.713 21.57,13.92 21.217,14.025C20.425,14.259 19.582,14.259 18.789,14.025C18.437,13.92 18.029,13.713 17.388,13.234C16.729,12.741 15.938,12.051 14.783,11.039L6.764,4.024ZM4.104,6.479C4.005,6.791 3.928,7.204 3.879,7.805C3.805,8.715 3.803,9.889 3.803,11.599L3.803,20.399C3.803,22.109 3.805,23.283 3.879,24.193C3.952,25.083 4.085,25.56 4.261,25.906C4.664,26.696 5.306,27.339 6.096,27.741C6.442,27.918 6.92,28.051 7.809,28.123C8.719,28.198 9.893,28.199 11.603,28.199L28.403,28.199C30.113,28.199 31.287,28.198 32.197,28.123C33.087,28.051 33.564,27.918 33.91,27.741C34.7,27.339 35.343,26.696 35.745,25.906C35.922,25.56 36.055,25.083 36.127,24.193C36.202,23.283 36.203,22.109 36.203,20.399L36.203,11.599C36.203,9.889 36.202,8.715 36.127,7.805C36.078,7.204 36.001,6.791 35.902,6.479L27.594,13.749L27.542,13.795C26.452,14.749 25.557,15.532 24.774,16.117C23.961,16.725 23.162,17.203 22.238,17.477C20.779,17.908 19.227,17.908 17.768,17.477C16.844,17.203 16.046,16.725 15.232,16.117C14.45,15.532 13.555,14.749 12.464,13.795L12.412,13.749L4.104,6.479Z" clip-rule="evenodd" fill-rule="evenodd" fill="#80A948"/>
</svg>
