<svg width="36" height="40" viewBox="0 0 36 40" fill="none" xmlns="http://www.w3.org/2000/svg" xmlns:xlink="http://www.w3.org/1999/xlink">
<path d="M18.003,0.199C23.526,0.199 28.003,4.676 28.003,10.199L28.112,10.199C30.786,10.199 31.756,10.478 32.734,11.001C33.712,11.524 34.479,12.291 35.002,13.269C35.525,14.246 35.803,15.216 35.803,17.891L35.803,27.668C35.803,31.846 35.362,33.391 34.534,34.939C33.706,36.487 32.491,37.702 30.943,38.53C29.395,39.358 27.85,39.799 23.672,39.799L12.334,39.799C8.156,39.799 6.611,39.358 5.063,38.53C3.515,37.702 2.3,36.487 1.472,34.939C0.644,33.391 0.203,31.846 0.203,27.668L0.203,17.891C0.203,15.216 0.482,14.246 1.005,13.269C1.527,12.291 2.295,11.524 3.273,11.001C4.25,10.478 5.22,10.199 7.895,10.199L8.003,10.199C8.003,4.676 12.48,0.199 18.003,0.199ZM28.497,13.801L7.895,13.799C6,13.799 5.489,13.898 4.97,14.175C4.62,14.363 4.366,14.616 4.179,14.966C3.902,15.485 3.803,15.996 3.803,17.891L3.803,27.668C3.803,30.938 4.024,32.078 4.647,33.241C5.139,34.162 5.84,34.863 6.761,35.356C7.925,35.978 9.064,36.199 12.334,36.199L23.672,36.199C26.942,36.199 28.082,35.978 29.245,35.356C30.166,34.863 30.867,34.162 31.36,33.241C31.982,32.078 32.203,30.938 32.203,27.668L32.203,17.891C32.203,15.996 32.105,15.485 31.827,14.966C31.64,14.616 31.386,14.363 31.036,14.175C30.555,13.918 30.08,13.814 28.497,13.801ZM25.895,15.999C26.306,15.999 26.591,16.069 26.836,16.2C27.08,16.33 27.272,16.522 27.403,16.767C27.534,17.011 27.603,17.296 27.603,17.707L27.603,17.891C27.603,18.302 27.534,18.587 27.403,18.832C27.272,19.076 27.08,19.268 26.836,19.399C26.591,19.53 26.306,19.599 25.895,19.599L25.711,19.599C25.3,19.599 25.015,19.53 24.771,19.399C24.526,19.268 24.334,19.076 24.204,18.832C24.073,18.587 24.003,18.302 24.003,17.891L24.003,17.707C24.003,17.296 24.073,17.011 24.204,16.767C24.334,16.522 24.526,16.33 24.771,16.2C25.015,16.069 25.3,15.999 25.711,15.999L25.895,15.999ZM9.895,15.999C10.306,15.999 10.591,16.069 10.836,16.2C11.08,16.33 11.272,16.522 11.403,16.767C11.534,17.011 11.603,17.296 11.603,17.707L11.603,17.891C11.603,18.302 11.534,18.587 11.403,18.832C11.272,19.076 11.08,19.268 10.836,19.399C10.591,19.53 10.306,19.599 9.895,19.599L9.711,19.599C9.3,19.599 9.015,19.53 8.77,19.399C8.526,19.268 8.334,19.076 8.203,18.832C8.073,18.587 8.003,18.302 8.003,17.891L8.003,17.707C8.003,17.296 8.073,17.011 8.203,16.767C8.334,16.522 8.526,16.33 8.77,16.2C9.015,16.069 9.3,15.999 9.711,15.999L9.895,15.999ZM18.003,3.799C14.469,3.799 11.603,6.665 11.603,10.199L24.403,10.199C24.403,6.665 21.538,3.799 18.003,3.799Z" fill="#FFBA00"/>
</svg>
