<svg width="50" height="48" viewBox="0 0 50 48" fill="none" xmlns="http://www.w3.org/2000/svg" xmlns:xlink="http://www.w3.org/1999/xlink">
<path d="M27.004,27L27.004,45C27.004,46.657 25.66,48 24.004,48C22.347,48 21.004,46.657 21.004,45L21.004,27L3.004,27C1.347,27 0.004,25.657 0.004,24C0.004,22.343 1.347,21 3.004,21L21.004,21L21.004,3C21.004,1.343 22.347,0 24.004,0C25.66,0 27.004,1.343 27.004,3L27.004,21L45.004,21C46.66,21 48.004,22.343 48.004,24C48.004,25.657 46.66,27 45.004,27L27.004,27Z" transform="rotate(-90 24.004 24)" fill="#98A2B3"/>
</svg>
