<svg width="40" height="34" viewBox="0 0 40 34" fill="none" xmlns="http://www.w3.org/2000/svg" xmlns:xlink="http://www.w3.org/1999/xlink">
<path d="M27,7C27.994,7 28.8,7.806 28.8,8.8L28.8,10.2L30.2,10.2C31.194,10.2 32,11.006 32,12C32,12.994 31.194,13.8 30.2,13.8L28.8,13.8L28.8,15.2C28.8,16.194 27.994,17 27,17C26.006,17 25.2,16.194 25.2,15.2L25.2,13.8L23.8,13.8C22.806,13.8 22,12.994 22,12C22,11.006 22.806,10.2 23.8,10.2L25.2,10.2L25.2,8.8C25.2,7.806 26.006,7 27,7Z" fill="#FFBA00"/>
<path d="M20.222,3.399C22.478,1.287 25.081,0.14 27.984,0.012L28.531,0C34.846,0 40,5.121 40,11.434C40,17.352 37.929,20.288 28.854,27.557L26.987,29.036L22.259,32.721C20.931,33.757 19.069,33.757 17.741,32.721L12.365,28.526C2.255,20.538 0,17.609 0,11.434C0,5.121 5.154,0 11.469,0C14.549,0 17.325,1.152 19.745,3.39L19.988,3.626L20.222,3.399ZM36.4,11.434C36.4,7.114 32.863,3.6 28.531,3.6C25.817,3.6 23.478,4.831 21.404,7.416C20.688,8.309 19.332,8.315 18.608,7.431C16.482,4.835 14.135,3.6 11.469,3.6C7.137,3.6 3.6,7.114 3.6,11.434C3.6,15.934 5.194,18.195 13.478,24.813L15.226,26.197L19.954,29.882C19.981,29.903 20.019,29.903 20.046,29.882L25.372,25.726C34.266,18.704 36.238,16.335 36.39,12.022L36.4,11.434Z" clip-rule="evenodd" fill-rule="evenodd" fill="#FFBA00"/>
</svg>
