<svg width="48" height="34" viewBox="0 0 48 34" fill="none" xmlns="http://www.w3.org/2000/svg" xmlns:xlink="http://www.w3.org/1999/xlink">
<path d="M34.246,0.398C40.055,0.398 43.907,4.069 46.032,10.149C47.451,14.213 48,18.944 48,23.627C48,30.441 46.326,33.141 41.219,33.141C38.712,33.141 36.99,31.554 33.944,27.622C31.507,24.477 30.58,23.498 30.262,23.498L17.738,23.498C17.348,23.498 16.069,24.73 13.671,27.628L13.638,27.667C10.074,31.974 8.869,33.141 6.781,33.141C1.674,33.141 0,30.441 0,23.627C0,18.944 0.549,14.213 1.968,10.149C4.093,4.069 7.945,0.398 13.754,0.398L34.246,0.398ZM34.246,3.998L13.754,3.998C6.539,3.998 3.6,12.412 3.6,23.627C3.6,28.706 4.118,29.541 6.781,29.541C7.163,29.541 8.432,28.311 10.865,25.372L10.897,25.333C14.399,21.102 15.648,19.898 17.738,19.898L30.262,19.898C32.392,19.898 33.063,20.608 36.79,25.417C39.035,28.316 40.365,29.541 41.219,29.541C43.882,29.541 44.4,28.706 44.4,23.627C44.4,12.412 41.461,3.998 34.246,3.998ZM14.28,7.427C14.914,7.427 15.429,7.941 15.429,8.576L15.427,10.855L17.709,10.856C18.343,10.856 18.857,11.37 18.857,12.004L18.857,13.136C18.857,13.77 18.343,14.284 17.709,14.284L15.427,14.283L15.429,16.564C15.429,17.198 14.914,17.713 14.28,17.713L13.149,17.713C12.514,17.713 12,17.198 12,16.564L11.999,14.283L9.72,14.284C9.086,14.284 8.571,13.77 8.571,13.136L8.571,12.004C8.571,11.37 9.086,10.856 9.72,10.856L11.999,10.855L12,8.576C12,7.941 12.514,7.427 13.149,7.427L14.28,7.427ZM34.851,14.284C35.486,14.284 36,14.798 36,15.433L36,16.564C36,17.198 35.486,17.713 34.851,17.713L33.72,17.713C33.086,17.713 32.571,17.198 32.571,16.564L32.571,15.433C32.571,14.798 33.086,14.284 33.72,14.284L34.851,14.284ZM31.423,10.856C32.057,10.856 32.571,11.37 32.571,12.004L32.571,13.136C32.571,13.77 32.057,14.284 31.423,14.284L30.291,14.284C29.657,14.284 29.143,13.77 29.143,13.136L29.143,12.004C29.143,11.37 29.657,10.856 30.291,10.856L31.423,10.856ZM38.28,10.856C38.914,10.856 39.429,11.37 39.429,12.004L39.429,13.136C39.429,13.77 38.914,14.284 38.28,14.284L37.149,14.284C36.514,14.284 36,13.77 36,13.136L36,12.004C36,11.37 36.514,10.856 37.149,10.856L38.28,10.856ZM34.851,7.427C35.486,7.427 36,7.941 36,8.576L36,9.707C36,10.341 35.486,10.856 34.851,10.856L33.72,10.856C33.086,10.856 32.571,10.341 32.571,9.707L32.571,8.576C32.571,7.941 33.086,7.427 33.72,7.427L34.851,7.427Z" fill="#FFBA00"/>
</svg>
