<svg width="40" height="40" viewBox="0 0 40 40" fill="none" xmlns="http://www.w3.org/2000/svg" xmlns:xlink="http://www.w3.org/1999/xlink">
<path d="M7.256,1.465C7.959,0.762 9.098,0.762 9.801,1.465L22.436,14.1C22.469,14.132 22.5,14.166 22.53,14.201L35.337,14.201C35.381,14.201 35.425,14.201 35.47,14.201C35.945,14.199 36.493,14.198 36.987,14.33C38.299,14.682 39.323,15.706 39.674,17.017C39.807,17.512 39.805,18.059 39.804,18.534C39.804,18.58 39.804,18.624 39.804,18.668C39.804,18.772 39.804,18.875 39.804,18.976C39.804,21.78 39.805,23.551 39.402,25.055C38.378,28.875 35.516,31.91 31.804,33.173L31.804,34.041C31.804,34.099 31.804,34.156 31.804,34.214C31.805,34.93 31.806,35.599 31.653,36.195C31.217,37.891 29.893,39.215 28.197,39.65C27.602,39.803 26.933,39.802 26.216,39.801C26.159,39.801 26.102,39.801 26.044,39.801L13.964,39.801C13.906,39.801 13.848,39.801 13.791,39.801C13.075,39.802 12.405,39.803 11.81,39.65C10.114,39.215 8.79,37.891 8.354,36.195C8.202,35.599 8.202,34.93 8.203,34.214C8.204,34.156 8.204,34.099 8.204,34.041L8.204,33.173C4.492,31.91 1.629,28.875 0.606,25.055C0.203,23.551 0.203,21.78 0.204,18.976C0.204,18.875 0.204,18.772 0.204,18.668C0.204,18.624 0.203,18.58 0.203,18.534C0.202,18.059 0.201,17.512 0.333,17.017C0.684,15.706 1.709,14.682 3.02,14.33C3.514,14.198 4.062,14.199 4.537,14.201C4.582,14.201 4.627,14.201 4.67,14.201L8.961,14.201L3.013,8.253C2.31,7.55 2.31,6.41 3.013,5.707C3.716,5.004 4.856,5.004 5.559,5.707L14.052,14.201L17.446,14.201L7.256,4.01C6.553,3.307 6.553,2.168 7.256,1.465ZM15.337,30.201L24.67,30.201C27.886,30.201 29.141,30.185 30.126,29.921C32.956,29.163 35.166,26.953 35.924,24.123C36.188,23.138 36.204,21.883 36.204,18.668C36.204,18.341 36.203,18.157 36.197,18.02C36.195,17.975 36.193,17.947 36.191,17.931C36.171,17.877 36.128,17.834 36.074,17.814C36.058,17.812 36.029,17.81 35.984,17.808C35.848,17.801 35.663,17.801 35.337,17.801L4.67,17.801C4.344,17.801 4.159,17.801 4.023,17.808C3.978,17.81 3.949,17.812 3.934,17.814C3.879,17.834 3.836,17.877 3.816,17.931C3.815,17.947 3.812,17.975 3.81,18.02C3.804,18.157 3.804,18.341 3.804,18.668C3.804,21.883 3.819,23.138 4.083,24.123C4.841,26.953 7.052,29.163 9.881,29.921C10.866,30.185 12.121,30.201 15.337,30.201ZM11.804,33.801L11.804,34.041C11.804,35.045 11.818,35.208 11.841,35.299C11.95,35.723 12.281,36.054 12.705,36.163C12.796,36.187 12.96,36.201 13.964,36.201L26.044,36.201C27.047,36.201 27.211,36.187 27.302,36.163C27.726,36.054 28.057,35.723 28.166,35.299C28.189,35.208 28.204,35.045 28.204,34.041L28.204,33.801L25.561,33.801C25.372,33.801 25.178,33.801 24.979,33.801C24.877,33.801 24.775,33.801 24.67,33.801L15.337,33.801C15.233,33.801 15.13,33.801 15.028,33.801C14.829,33.801 14.635,33.801 14.446,33.801L11.804,33.801Z" clip-rule="evenodd" fill-rule="evenodd" fill="#FFBA00"/>
</svg>
