<svg width="28" height="40" viewBox="0 0 28 40" fill="none" xmlns="http://www.w3.org/2000/svg" xmlns:xlink="http://www.w3.org/1999/xlink">
<path d="M12.363,3.799L15.643,3.799C17.831,3.799 19.255,3.802 20.342,3.891C21.386,3.976 21.798,4.123 22.019,4.235C22.772,4.619 23.384,5.231 23.767,5.983C23.88,6.204 24.026,6.616 24.112,7.661C24.2,8.747 24.203,10.172 24.203,12.359L24.203,27.639C24.203,29.827 24.2,31.251 24.112,32.338C24.026,33.382 23.88,33.794 23.767,34.015C23.384,34.768 22.772,35.38 22.019,35.763C21.798,35.876 21.386,36.022 20.342,36.108C19.255,36.196 17.831,36.199 15.643,36.199L12.363,36.199C10.176,36.199 8.751,36.196 7.665,36.108C6.62,36.022 6.208,35.876 5.987,35.763C5.235,35.38 4.623,34.768 4.239,34.015C4.127,33.794 3.98,33.382 3.895,32.338C3.806,31.251 3.803,29.827 3.803,27.639L3.803,12.359C3.803,10.172 3.806,8.747 3.895,7.661C3.98,6.616 4.127,6.204 4.239,5.983C4.623,5.231 5.235,4.619 5.987,4.235C6.208,4.123 6.62,3.976 7.665,3.891C8.751,3.802 10.176,3.799 12.363,3.799ZM0.203,12.359C0.203,8.103 0.203,5.975 1.031,4.349C1.76,2.919 2.923,1.756 4.353,1.028C5.979,0.199 8.107,0.199 12.363,0.199L15.643,0.199C19.9,0.199 22.028,0.199 23.654,1.028C25.084,1.756 26.246,2.919 26.975,4.349C27.803,5.975 27.803,8.103 27.803,12.359L27.803,27.639C27.803,31.896 27.803,34.024 26.975,35.65C26.246,37.08 25.084,38.242 23.654,38.971C22.028,39.799 19.9,39.799 15.643,39.799L12.363,39.799C8.107,39.799 5.979,39.799 4.353,38.971C2.923,38.242 1.76,37.08 1.031,35.65C0.203,34.024 0.203,31.896 0.203,27.639L0.203,12.359ZM12.503,28.399C11.509,28.399 10.703,29.205 10.703,30.199C10.703,31.193 11.509,31.999 12.503,31.999L15.503,31.999C16.497,31.999 17.303,31.193 17.303,30.199C17.303,29.205 16.497,28.399 15.503,28.399L12.503,28.399Z" clip-rule="evenodd" fill-rule="evenodd" fill="#98A2B3"/>
</svg>
