<svg width="40" height="36" viewBox="0 0 40 36" fill="none" xmlns="http://www.w3.org/2000/svg" xmlns:xlink="http://www.w3.org/1999/xlink">
<path d="M18.332,0.199L18.403,0.199L21.603,0.199L21.674,0.199L21.674,0.199C22.734,0.199 23.636,0.199 24.377,0.26C25.155,0.323 25.912,0.463 26.636,0.831C27.728,1.387 28.615,2.275 29.171,3.366C29.54,4.09 29.679,4.847 29.743,5.625C29.801,6.336 29.803,7.195 29.803,8.199L31.603,8.199L31.674,8.199C32.734,8.199 33.636,8.199 34.377,8.26C35.155,8.323 35.912,8.463 36.636,8.831C37.728,9.387 38.615,10.275 39.171,11.366C39.54,12.09 39.679,12.847 39.743,13.625C39.803,14.366 39.803,15.269 39.803,16.328L39.803,16.328L39.803,16.328L39.803,16.399L39.803,19.199L39.803,19.266C39.803,20.049 39.803,20.742 39.756,21.316C39.706,21.928 39.594,22.561 39.28,23.178C38.82,24.082 38.086,24.816 37.182,25.276C36.727,25.508 36.262,25.63 35.803,25.698L35.803,26.799L35.803,26.871C35.803,28.07 35.803,29.077 35.736,29.901C35.666,30.763 35.513,31.582 35.117,32.359C34.513,33.545 33.549,34.509 32.363,35.113C31.586,35.509 30.767,35.662 29.905,35.732C29.081,35.799 28.074,35.799 26.876,35.799L26.875,35.799L26.803,35.799L13.203,35.799L13.131,35.799L13.131,35.799C11.932,35.799 10.925,35.799 10.101,35.732C9.239,35.662 8.42,35.509 7.643,35.113C6.458,34.509 5.494,33.545 4.89,32.359C4.494,31.582 4.341,30.763 4.27,29.901C4.203,29.077 4.203,28.07 4.203,26.871L4.203,26.799L4.203,25.698C3.745,25.63 3.28,25.508 2.824,25.276C1.921,24.816 1.186,24.082 0.726,23.178C0.412,22.561 0.3,21.928 0.25,21.316C0.203,20.742 0.203,20.049 0.203,19.266L0.203,19.266L0.203,19.199L0.203,16.399L0.203,16.328L0.203,16.328C0.203,15.269 0.203,14.366 0.264,13.625C0.327,12.847 0.466,12.09 0.835,11.366C1.391,10.275 2.279,9.387 3.37,8.831C4.094,8.463 4.851,8.323 5.629,8.26C6.37,8.199 7.273,8.199 8.332,8.199L8.403,8.199L10.203,8.199C10.203,7.195 10.206,6.336 10.264,5.625C10.327,4.847 10.466,4.09 10.835,3.366C11.391,2.275 12.279,1.387 13.37,0.831C14.094,0.463 14.851,0.323 15.629,0.26C16.37,0.199 17.273,0.199 18.332,0.199L18.332,0.199ZM6.803,22.199L33.203,22.199C34.073,22.199 34.617,22.198 35.027,22.164C35.416,22.133 35.523,22.081 35.548,22.068C35.774,21.953 35.957,21.77 36.072,21.544C36.085,21.519 36.137,21.412 36.168,21.023C36.202,20.613 36.203,20.069 36.203,19.199L36.203,16.399C36.203,15.249 36.202,14.495 36.155,13.919C36.109,13.363 36.031,13.132 35.963,13C35.753,12.586 35.416,12.25 35.002,12.039C34.87,11.972 34.64,11.893 34.084,11.848C33.507,11.801 32.753,11.799 31.603,11.799L29.803,11.799L29.803,11.799L28.003,11.799L12.003,11.799L10.203,11.799L10.203,11.799L8.403,11.799C7.253,11.799 6.499,11.801 5.923,11.848C5.367,11.893 5.136,11.972 5.004,12.039C4.59,12.25 4.254,12.586 4.043,13C3.976,13.132 3.897,13.363 3.852,13.919C3.805,14.495 3.803,15.249 3.803,16.399L3.803,19.199C3.803,20.069 3.805,20.613 3.838,21.023C3.87,21.412 3.921,21.519 3.934,21.544C4.049,21.77 4.233,21.953 4.458,22.068C4.483,22.081 4.59,22.133 4.979,22.164C5.389,22.198 5.933,22.199 6.803,22.199ZM7.803,25.799L7.803,26.799C7.803,28.089 7.805,28.948 7.858,29.608C7.911,30.247 8.003,30.54 8.097,30.725C8.356,31.233 8.769,31.646 9.277,31.905C9.463,31.999 9.755,32.092 10.394,32.144C11.054,32.198 11.913,32.199 13.203,32.199L26.803,32.199C28.093,32.199 28.952,32.198 29.612,32.144C30.251,32.092 30.544,31.999 30.729,31.905C31.237,31.646 31.65,31.233 31.909,30.725C32.003,30.54 32.096,30.247 32.148,29.608C32.202,28.948 32.203,28.089 32.203,26.799L32.203,25.799L7.803,25.799ZM26.155,5.919C26.199,6.461 26.203,7.161 26.203,8.199L13.803,8.199C13.803,7.161 13.807,6.461 13.852,5.919C13.897,5.363 13.976,5.132 14.043,5C14.254,4.586 14.59,4.25 15.004,4.039C15.136,3.972 15.367,3.893 15.923,3.848C16.499,3.801 17.253,3.799 18.403,3.799L21.603,3.799C22.753,3.799 23.507,3.801 24.084,3.848C24.64,3.893 24.87,3.972 25.002,4.039C25.416,4.25 25.752,4.586 25.963,5C26.031,5.132 26.109,5.363 26.155,5.919Z" clip-rule="evenodd" fill-rule="evenodd" fill="#FFBA00"/>
</svg>
