<svg width="34" height="40" viewBox="0 0 34 40" fill="none" xmlns="http://www.w3.org/2000/svg" xmlns:xlink="http://www.w3.org/1999/xlink">
<path d="M18.203,3.799L13.203,3.799C11.213,3.799 9.829,3.801 8.752,3.889C7.696,3.975 7.095,4.136 6.642,4.366C5.664,4.865 4.868,5.66 4.37,6.639C4.139,7.091 3.979,7.692 3.893,8.748C3.805,9.825 3.803,11.21 3.803,13.199L3.803,26.799C3.803,28.789 3.805,30.173 3.893,31.25C3.979,32.306 4.139,32.908 4.37,33.36C4.868,34.339 5.664,35.134 6.642,35.633C7.095,35.863 7.696,36.024 8.752,36.11C9.829,36.198 11.213,36.199 13.203,36.199L20.803,36.199C22.793,36.199 24.177,36.198 25.254,36.11C26.31,36.024 26.911,35.863 27.364,35.633C28.342,35.134 29.138,34.339 29.636,33.36C29.867,32.908 30.028,32.306 30.114,31.25C30.202,30.173 30.203,28.789 30.203,26.799L30.203,15.799L26.403,15.799L26.332,15.799C25.273,15.799 24.37,15.799 23.629,15.739C22.851,15.675 22.094,15.536 21.37,15.167C20.279,14.611 19.391,13.724 18.835,12.633C18.466,11.909 18.327,11.152 18.264,10.373C18.203,9.632 18.203,8.73 18.203,7.67L18.203,7.599L18.203,3.799ZM28.658,12.199L21.803,5.345L21.803,7.599C21.803,8.749 21.805,9.503 21.852,10.08C21.897,10.636 21.976,10.866 22.043,10.998C22.254,11.412 22.59,11.749 23.004,11.96C23.136,12.027 23.367,12.106 23.923,12.151C24.499,12.198 25.253,12.199 26.403,12.199L28.658,12.199ZM20.881,0.332C20.322,0.198 19.749,0.199 19.149,0.199L19.015,0.199L13.203,0.199L13.126,0.199C11.231,0.199 9.7,0.199 8.459,0.301C7.18,0.405 6.053,0.626 5.008,1.159C3.352,2.002 2.006,3.348 1.162,5.004C0.63,6.049 0.409,7.177 0.304,8.455C0.203,9.696 0.203,11.228 0.203,13.123L0.203,13.199L0.203,26.799L0.203,26.876C0.203,28.771 0.203,30.303 0.304,31.544C0.409,32.822 0.63,33.95 1.162,34.995C2.006,36.65 3.352,37.997 5.008,38.84C6.053,39.373 7.18,39.594 8.459,39.698C9.7,39.799 11.231,39.799 13.126,39.799L13.203,39.799L20.803,39.799L20.88,39.799C22.775,39.799 24.307,39.799 25.547,39.698C26.826,39.594 27.954,39.373 28.998,38.84C30.654,37.997 32,36.65 32.844,34.995C33.376,33.95 33.597,32.822 33.702,31.544C33.803,30.303 33.803,28.771 33.803,26.876L33.803,26.799L33.803,14.988L33.803,14.853C33.804,14.254 33.805,13.68 33.671,13.122C33.553,12.632 33.359,12.164 33.096,11.734C32.796,11.244 32.389,10.839 31.965,10.416L31.87,10.321L23.682,2.133L23.587,2.037C23.164,1.613 22.759,1.207 22.269,0.907C21.839,0.644 21.371,0.45 20.881,0.332Z" clip-rule="evenodd" fill-rule="evenodd" fill="#98A2B3"/>
</svg>
