<svg width="38" height="40" viewBox="0 0 38 40" fill="none" xmlns="http://www.w3.org/2000/svg" xmlns:xlink="http://www.w3.org/1999/xlink">
<path d="M8.503,27.499L10.503,27.499C11.332,27.499 12.003,28.171 12.003,28.999L12.003,30.999C12.003,31.828 11.332,32.499 10.503,32.499L8.503,32.499C7.675,32.499 7.003,31.828 7.003,30.999L7.003,28.999C7.003,28.171 7.675,27.499 8.503,27.499Z" fill="#FFBA00"/>
<path d="M25.503,27.499L27.503,27.499C28.332,27.499 29.003,28.171 29.003,28.999L29.003,30.999C29.003,31.828 28.332,32.499 27.503,32.499L25.503,32.499C24.675,32.499 24.003,31.828 24.003,30.999L24.003,28.999C24.003,28.171 24.675,27.499 25.503,27.499Z" fill="#FFBA00"/>
<path d="M8.503,17.499L10.503,17.499C11.332,17.499 12.003,18.171 12.003,18.999L12.003,20.999C12.003,21.828 11.332,22.499 10.503,22.499L8.503,22.499C7.675,22.499 7.003,21.828 7.003,20.999L7.003,18.999C7.003,18.171 7.675,17.499 8.503,17.499Z" fill="#FFBA00"/>
<path d="M25.503,17.499L27.503,17.499C28.332,17.499 29.003,18.171 29.003,18.999L29.003,20.999C29.003,21.828 28.332,22.499 27.503,22.499L25.503,22.499C24.675,22.499 24.003,21.828 24.003,20.999L24.003,18.999C24.003,18.171 24.675,17.499 25.503,17.499Z" fill="#FFBA00"/>
<path d="M8.503,7.499L10.503,7.499C11.332,7.499 12.003,8.171 12.003,8.999L12.003,10.999C12.003,11.828 11.332,12.499 10.503,12.499L8.503,12.499C7.675,12.499 7.003,11.828 7.003,10.999L7.003,8.999C7.003,8.171 7.675,7.499 8.503,7.499Z" fill="#FFBA00"/>
<path d="M25.503,7.499L27.503,7.499C28.332,7.499 29.003,8.171 29.003,8.999L29.003,10.999C29.003,11.828 28.332,12.499 27.503,12.499L25.503,12.499C24.675,12.499 24.003,11.828 24.003,10.999L24.003,8.999C24.003,8.171 24.675,7.499 25.503,7.499Z" fill="#FFBA00"/>
<path d="M12.926,0.199L23.081,0.199C25.115,0.199 26.752,0.199 28.076,0.307C29.438,0.419 30.627,0.653 31.725,1.213C33.475,2.104 34.898,3.527 35.79,5.277C36.349,6.375 36.584,7.565 36.695,8.927C36.803,10.251 36.803,11.887 36.803,13.922L36.803,26.077C36.803,28.111 36.803,29.748 36.695,31.072C36.584,32.434 36.349,33.623 35.79,34.721C34.898,36.471 33.475,37.894 31.725,38.786C30.627,39.345 29.438,39.58 28.076,39.691C26.752,39.799 25.115,39.799 23.081,39.799L12.926,39.799C10.891,39.799 9.255,39.799 7.931,39.691C6.569,39.58 5.379,39.345 4.281,38.786C2.531,37.894 1.108,36.471 0.217,34.721C-0.343,33.623 -0.577,32.434 -0.689,31.072C-0.797,29.748 -0.797,28.111 -0.797,26.077L-0.797,13.922C-0.797,11.887 -0.797,10.251 -0.689,8.927C-0.577,7.565 -0.343,6.375 0.217,5.277C1.108,3.527 2.531,2.104 4.281,1.213C5.379,0.653 6.569,0.419 7.931,0.307C9.255,0.199 10.891,0.199 12.926,0.199ZM8.224,3.895C7.084,3.989 6.422,4.163 5.915,4.42C4.843,4.967 3.971,5.839 3.424,6.911C3.167,7.418 2.992,8.08 2.899,9.22C2.805,10.38 2.803,11.869 2.803,13.999L2.803,25.999C2.803,28.129 2.805,29.618 2.899,30.779C2.992,31.918 3.167,32.581 3.424,33.087C3.971,34.159 4.843,35.031 5.915,35.578C6.422,35.836 7.084,36.01 8.224,36.103C9.384,36.198 10.873,36.199 13.003,36.199L23.003,36.199C25.133,36.199 26.622,36.198 27.783,36.103C28.922,36.01 29.585,35.836 30.091,35.578C31.163,35.031 32.035,34.159 32.582,33.087C32.84,32.581 33.014,31.918 33.107,30.779C33.202,29.618 33.203,28.129 33.203,25.999L33.203,13.999C33.203,11.869 33.202,10.38 33.107,9.22C33.014,8.08 32.84,7.418 32.582,6.911C32.035,5.839 31.163,4.967 30.091,4.42C29.585,4.163 28.922,3.989 27.783,3.895C26.622,3.801 25.133,3.799 23.003,3.799L13.003,3.799C10.873,3.799 9.384,3.801 8.224,3.895Z" clip-rule="evenodd" fill-rule="evenodd" fill="#FFBA00"/>
</svg>
