<svg width="32" height="42" viewBox="0 0 32 42" fill="none" xmlns="http://www.w3.org/2000/svg" xmlns:xlink="http://www.w3.org/1999/xlink">
<path d="M17.803,1.999C17.803,1.005 16.997,0.199 16.003,0.199C15.009,0.199 14.203,1.005 14.203,1.999L14.203,2.349C9.614,3.119 6.006,6.783 5.321,11.401L5.182,11.379C4.905,11.334 4.693,11.297 4.554,11.271C4.484,11.259 4.432,11.249 4.399,11.242L4.363,11.236L4.356,11.234C3.382,11.04 2.433,11.672 2.238,12.646C2.043,13.621 2.675,14.569 3.65,14.764L3.653,14.765L3.657,14.766L3.672,14.769L3.723,14.778C3.767,14.787 3.829,14.798 3.91,14.813C4.071,14.842 4.305,14.883 4.606,14.932C5.124,15.016 5.841,15.123 6.727,15.234C6.711,15.453 6.703,15.675 6.703,15.899C6.703,21.037 10.865,25.199 16.003,25.199C21.141,25.199 25.303,21.037 25.303,15.899C25.303,15.675 25.295,15.453 25.28,15.234C26.166,15.123 26.883,15.016 27.401,14.932C27.702,14.883 27.935,14.842 28.097,14.813C28.177,14.798 28.24,14.787 28.283,14.778L28.334,14.769L28.349,14.766L28.353,14.765L28.356,14.764C29.33,14.569 29.963,13.621 29.768,12.646C29.573,11.672 28.625,11.039 27.651,11.234L27.643,11.236L27.607,11.242C27.574,11.249 27.522,11.259 27.453,11.271C27.313,11.297 27.102,11.334 26.824,11.379L26.686,11.401C26.001,6.783 22.393,3.119 17.803,2.349L17.803,1.999ZM14.203,6.026C14.218,7.008 15.018,7.799 16.003,7.799C16.988,7.799 17.789,7.008 17.803,6.026C20.547,6.732 22.658,9.016 23.112,11.852C21.188,12.041 18.753,12.199 16.003,12.199C13.253,12.199 10.819,12.041 8.894,11.852C9.348,9.016 11.459,6.732 14.203,6.026ZM10.312,15.587C10.306,15.691 10.303,15.795 10.303,15.899C10.303,19.049 12.853,21.599 16.003,21.599C19.153,21.599 21.703,19.049 21.703,15.899C21.703,15.795 21.7,15.691 21.695,15.587C20.024,15.712 18.101,15.799 16.003,15.799C13.905,15.799 11.982,15.712 10.312,15.587ZM3.859,38.161C3.778,38.091 3.782,37.922 3.793,37.529C3.797,37.353 3.803,37.133 3.803,36.856C3.803,33.071 9.36,30.799 16.003,30.799C22.647,30.799 28.203,33.071 28.203,36.856C28.203,37.133 28.209,37.353 28.214,37.529C28.224,37.922 28.229,38.091 28.148,38.161C28.087,38.213 27.978,38.21 27.788,38.204C27.715,38.202 27.631,38.199 27.533,38.199L4.474,38.199C4.375,38.199 4.291,38.202 4.218,38.204C4.028,38.21 3.919,38.213 3.859,38.161ZM16.003,27.199C7.549,27.199 0.203,30.203 0.203,36.856C0.203,40.328 1.574,41.799 4.474,41.799L27.533,41.799C30.432,41.799 31.803,40.328 31.803,36.856C31.803,30.203 24.458,27.199 16.003,27.199Z" clip-rule="evenodd" fill-rule="evenodd" fill="#FFBA00"/>
</svg>
