<svg width="40" height="44" viewBox="0 0 40 44" fill="none" xmlns="http://www.w3.org/2000/svg" xmlns:xlink="http://www.w3.org/1999/xlink">
<path d="M22.597,0.868C24.062,1.21 25.352,1.954 26.38,3.052C27.423,4.164 28.029,5.343 28.682,7.648L30.264,13.536C30.55,14.603 29.916,15.7 28.849,15.986C27.783,16.272 26.686,15.638 26.4,14.572L24.959,9.194L24.734,8.39C24.304,6.932 23.981,6.341 23.461,5.787C22.973,5.266 22.383,4.925 21.688,4.763C20.948,4.59 20.275,4.606 18.798,4.962L17.988,5.17L7.733,7.917C6.025,8.375 5.226,8.707 4.716,9.084L4.594,9.179L4.326,9.415C3.805,9.903 3.464,10.493 3.302,11.188C3.115,11.99 3.149,12.714 3.598,14.465L9.045,34.802L9.27,35.607C9.7,37.064 10.023,37.655 10.543,38.21C11.031,38.73 11.621,39.071 12.316,39.233C13.118,39.421 13.806,39.386 15.53,38.953C16.602,38.684 17.688,39.334 17.957,40.406C18.226,41.477 17.576,42.564 16.505,42.833C14.207,43.41 12.893,43.476 11.406,43.129C9.942,42.787 8.652,42.042 7.624,40.945C6.581,39.832 5.975,38.653 5.322,36.349L-0.155,15.923C-0.864,13.276 -0.964,11.87 -0.593,10.279C-0.289,8.977 0.333,7.814 1.267,6.822L1.632,6.459L1.99,6.143C2.981,5.32 4.144,4.775 6.173,4.199L6.698,4.054L16.953,1.306C19.6,0.597 21.006,0.497 22.597,0.868ZM30.739,19.998C34.739,19.998 38.002,23.181 38.002,27.133C38.002,30.951 36.459,32.835 30.442,37.4L27.787,39.415C26.731,40.216 25.272,40.216 24.217,39.415L21.562,37.4C15.545,32.835 14.002,30.951 14.002,27.133C14.002,23.181 17.265,19.998 21.265,19.998C22.923,19.998 24.457,20.446 25.83,21.318L26.002,21.432L26.174,21.318C27.41,20.533 28.775,20.092 30.245,20.012L30.739,19.998Z" fill="#FFBA00"/>
</svg>
