<svg width="36" height="36" viewBox="0 0 36 36" fill="none" xmlns="http://www.w3.org/2000/svg" xmlns:xlink="http://www.w3.org/1999/xlink">
<path d="M17.459,3.672C17.825,3.576 18.21,3.576 18.575,3.672C18.907,3.759 19.267,3.988 20.768,5.109L33.114,14.33C33.91,14.924 35.038,14.761 35.633,13.964C36.228,13.168 36.064,12.04 35.268,11.445L22.922,2.225L22.692,2.053C21.55,1.198 20.592,0.48 19.49,0.19C18.526,-0.063 17.513,-0.063 16.548,0.189C15.446,0.477 14.487,1.194 13.344,2.048L13.114,2.22L0.74,11.444C-0.057,12.038 -0.222,13.166 0.372,13.963C0.967,14.76 2.094,14.925 2.891,14.331L15.266,5.106C16.767,3.987 17.127,3.759 17.459,3.672ZM19.803,15.781C19.803,14.787 18.997,13.981 18.003,13.981C17.009,13.981 16.203,14.787 16.203,15.781L16.203,32.201L11.803,32.201L11.803,15.786C11.803,14.792 10.997,13.986 10.003,13.986C9.009,13.986 8.203,14.792 8.203,15.786L8.203,32.201L1.808,32.201C0.814,32.201 0.008,33.007 0.008,34.001C0.008,34.995 0.814,35.801 1.808,35.801L34.198,35.801C35.193,35.801 35.998,34.995 35.998,34.001C35.998,33.007 35.193,32.201 34.198,32.201L27.803,32.201L27.803,15.786C27.803,14.792 26.997,13.986 26.003,13.986C25.009,13.986 24.203,14.792 24.203,15.786L24.203,32.201L19.803,32.201L19.803,15.781Z" clip-rule="evenodd" fill-rule="evenodd" fill="#FFBA00"/>
</svg>
