<svg width="264" height="344" viewBox="0 0 264 344" fill="none" xmlns="http://www.w3.org/2000/svg" xmlns:xlink="http://www.w3.org/1999/xlink">
<path d="M4.922,344L262.734,344L262.734,277.964L115.547,277.964L115.547,275.154L181.641,218.952C237.656,170.478 258.516,144.485 258.516,101.397L258.516,100.929C258.516,40.98 206.954,0 130.078,0C53.906,0 0,45.664 0,111.935L0,114.042L78.75,114.042L78.984,111.466C80.391,84.302 99.844,64.866 130.312,64.866C156.797,64.866 175.312,81.961 175.312,105.846L175.312,106.314C175.312,127.39 167.109,142.845 124.688,180.313L4.922,285.456L4.922,344Z" fill="#71AF1C" fill-opacity="0.04"/>
</svg>
