<svg width="270" height="344" viewBox="0 0 270 344" fill="none" xmlns="http://www.w3.org/2000/svg" xmlns:xlink="http://www.w3.org/1999/xlink">
<path d="M132.542,344C213.332,344 268.596,295.526 268.596,223.4L268.596,222.932C268.596,159.706 222.464,114.042 158.769,114.042C123.643,114.042 96.011,128.795 82.663,151.51L81.024,151.51L87.815,66.037L247.52,66.037L247.52,0L20.139,0L5.62,201.388L80.087,201.388C83.6,194.598 89.22,188.275 96.245,183.357C105.846,176.332 118.257,172.351 132.542,172.351C164.624,172.351 187.572,193.661 187.572,224.572L187.572,225.04C187.572,256.186 164.858,277.964 132.542,277.964C104.207,277.964 83.834,261.336 78.448,240.262L77.98,238.622L0,238.622L0.234,242.604C3.981,299.742 54.094,344 132.542,344Z" fill="#71AF1C" fill-opacity="0.04"/>
</svg>
