<svg width="280" height="344" viewBox="0 0 280 344" fill="none" xmlns="http://www.w3.org/2000/svg" xmlns:xlink="http://www.w3.org/1999/xlink">
<path d="M145.423,344C222.276,344 278.882,295.218 278.882,225.958L278.882,225.498C278.882,163.831 236.314,118.962 171.655,118.962C126.785,118.962 95.031,140.821 81.916,172.345L80.305,172.345C80.305,167.513 80.535,161.991 80.765,156.698C83.987,104.005 103.085,64.888 144.733,64.888C168.433,64.888 184.08,76.854 191.213,92.961L191.904,94.571L274.51,94.571L274.28,92.73C264.616,39.807 213.304,0 144.733,0C55.454,0 0,65.579 0,172.805L0,173.266C0,280.262 55.224,344 145.423,344ZM91.12,228.49L91.12,228.26C91.12,198.807 114.59,178.098 144.963,178.098C174.416,178.098 197.426,198.807 197.426,228.72L197.426,229.18C197.426,257.252 173.496,278.882 144.273,278.882C114.36,278.882 91.12,257.252 91.12,228.49Z" fill="#71AF1C" fill-opacity="0.04"/>
</svg>
