<svg width="278" height="344" viewBox="0 0 278 344" fill="none" xmlns="http://www.w3.org/2000/svg" xmlns:xlink="http://www.w3.org/1999/xlink">
<path d="M138.047,344C223.124,344 277.266,304.422 277.266,242.986L277.266,242.526C277.266,198.577 244.688,170.965 193.828,165.902L193.828,164.292C232.266,156.698 263.906,130.237 263.906,88.589L263.906,88.128C263.906,34.975 214.688,0 137.344,0C62.344,0 12.656,38.657 8.203,98.023L7.969,101.244L86.016,101.244L86.25,99.173C88.594,77.544 107.812,62.817 137.344,62.817C166.641,62.817 183.984,76.854 183.984,99.633L183.984,100.094C183.984,123.564 163.828,138.981 130.781,138.981L94.453,138.981L94.453,196.276L131.25,196.276C168.75,196.276 189.844,211.002 189.844,237.694L189.844,238.154C189.844,261.164 169.922,277.502 137.812,277.502C105.703,277.502 85.312,262.314 82.5,243.446L82.031,240.916L0,240.916L0.234,243.676C5.156,303.502 58.125,344 138.047,344Z" fill="#71AF1C" fill-opacity="0.04"/>
</svg>
