<svg width="92" height="92" viewBox="0 0 92 92" fill="none" xmlns="http://www.w3.org/2000/svg" xmlns:xlink="http://www.w3.org/1999/xlink">
<rect  x="43" y="44.5" width="18" height="3" fill="#80A948"/>
<rect  x="31" y="44.5" width="9" height="3" fill="#80A948"/>
<rect  x="31" y="50.5" width="30" height="3" fill="#80A948"/>
<rect  x="31" y="38.5" width="30" height="3" fill="#80A948"/>
<rect  x="49" y="13" width="3" height="3" fill="#80A948"/>
<rect  x="43" y="19" width="3" height="3" fill="#80A948"/>
<rect  x="46" y="70" width="3" height="3" fill="#80A948"/>
<rect  x="40" y="76" width="3" height="3" fill="#80A948"/>
<path d="M89.68,64.165L86.08,63.7L88.315,60.835C88.538,60.546 88.648,60.187 88.626,59.823C88.604,59.459 88.451,59.115 88.195,58.855L84.145,54.805C83.885,54.549 83.541,54.396 83.177,54.374C82.813,54.352 82.454,54.462 82.165,54.685L79.3,56.92L78.835,53.32C78.791,52.957 78.616,52.622 78.342,52.379C78.069,52.136 77.716,52.001 77.35,52L73,52L73,5.5C72.996,4.308 72.521,3.165 71.678,2.322C70.835,1.479 69.692,1.004 68.5,1L23.5,1C22.308,1.004 21.165,1.479 20.322,2.322C19.479,3.165 19.004,4.308 19,5.5L19,7L14.65,7C14.284,7.001 13.931,7.136 13.658,7.379C13.384,7.622 13.209,7.957 13.165,8.32L12.7,11.92L9.835,9.685C9.546,9.462 9.186,9.352 8.823,9.374C8.459,9.396 8.115,9.549 7.855,9.805L3.805,13.855C3.549,14.115 3.396,14.459 3.374,14.823C3.352,15.187 3.462,15.546 3.685,15.835L5.92,18.7L2.32,19.165C1.957,19.209 1.622,19.384 1.379,19.658C1.136,19.931 1.001,20.284 1,20.65L1,26.35C1.001,26.716 1.136,27.069 1.379,27.342C1.622,27.616 1.957,27.791 2.32,27.835L5.92,28.3L3.685,31.165C3.462,31.454 3.352,31.813 3.374,32.177C3.396,32.541 3.549,32.885 3.805,33.145L7.855,37.195C8.115,37.451 8.459,37.604 8.823,37.626C9.186,37.648 9.546,37.538 9.835,37.315L12.7,35.08L13.165,38.68C13.209,39.043 13.384,39.378 13.658,39.621C13.931,39.864 14.284,39.999 14.65,40L19,40L19,86.5C19.004,87.692 19.479,88.835 20.322,89.678C21.165,90.521 22.308,90.996 23.5,91L68.5,91C69.692,90.996 70.835,90.521 71.678,89.678C72.521,88.835 72.996,87.692 73,86.5L73,85L77.35,85C77.716,84.999 78.069,84.864 78.342,84.621C78.616,84.378 78.791,84.043 78.835,83.68L79.3,80.08L82.165,82.315C82.454,82.538 82.813,82.648 83.177,82.626C83.541,82.604 83.885,82.451 84.145,82.195L88.195,78.145C88.451,77.885 88.604,77.541 88.626,77.177C88.648,76.813 88.538,76.454 88.315,76.165L86.08,73.3L89.68,72.835C90.043,72.791 90.378,72.616 90.621,72.342C90.864,72.069 90.999,71.716 91,71.35L91,65.65C90.999,65.284 90.864,64.931 90.621,64.658C90.378,64.384 90.043,64.209 89.68,64.165L89.68,64.165ZM19,27.7C18.522,27.89 18.014,27.992 17.5,28C16.307,28 15.162,27.526 14.318,26.682C13.474,25.838 13,24.693 13,23.5C13,22.307 13.474,21.162 14.318,20.318C15.162,19.474 16.307,19 17.5,19C18.014,19.008 18.522,19.11 19,19.3L19,27.7ZM19,16.165C18.506,16.065 18.004,16.01 17.5,16C15.511,16 13.603,16.79 12.197,18.197C10.79,19.603 10,21.511 10,23.5C10,25.489 10.79,27.397 12.197,28.803C13.603,30.21 15.511,31 17.5,31C18.004,30.99 18.506,30.935 19,30.835L19,37L15.97,37L15.52,33.43C15.481,33.146 15.364,32.879 15.181,32.659C14.998,32.439 14.757,32.275 14.485,32.185C14.123,32.076 13.772,31.936 13.435,31.765C13.186,31.643 12.907,31.593 12.631,31.623C12.355,31.652 12.093,31.758 11.875,31.93L9.04,34.135L6.865,31.96L9.07,29.125C9.242,28.907 9.349,28.645 9.378,28.369C9.407,28.093 9.358,27.814 9.235,27.565C9.064,27.228 8.924,26.877 8.815,26.515C8.725,26.243 8.561,26.002 8.341,25.819C8.121,25.636 7.854,25.519 7.57,25.48L4,25.03L4,21.97L7.57,21.52C7.854,21.481 8.121,21.364 8.341,21.181C8.561,20.998 8.725,20.757 8.815,20.485C8.924,20.123 9.064,19.772 9.235,19.435C9.358,19.186 9.407,18.907 9.378,18.631C9.349,18.355 9.242,18.093 9.07,17.875L6.865,15.04L9.04,12.865L11.875,15.07C12.093,15.242 12.355,15.348 12.631,15.377C12.907,15.407 13.186,15.357 13.435,15.235C13.772,15.064 14.123,14.924 14.485,14.815C14.757,14.725 14.998,14.561 15.181,14.341C15.364,14.121 15.481,13.854 15.52,13.57L15.97,10L19,10L19,16.165ZM31,4L61,4L61,5.5C61,5.898 60.842,6.279 60.561,6.561C60.279,6.842 59.898,7 59.5,7L32.5,7C32.102,7 31.721,6.842 31.439,6.561C31.158,6.279 31,5.898 31,5.5L31,4ZM70,25L59.5,25L59.5,20.5C59.5,20.102 59.342,19.721 59.061,19.439C58.779,19.158 58.398,19 58,19L49,19L49,22L56.5,22L56.5,26.5C56.5,26.898 56.658,27.279 56.939,27.561C57.221,27.842 57.602,28 58,28L70,28L70,67L55,67C54.602,67 54.221,67.158 53.939,67.439C53.658,67.721 53.5,68.102 53.5,68.5L53.5,76L46,76L46,79L55,79C55.398,79 55.779,78.842 56.061,78.561C56.342,78.279 56.5,77.898 56.5,77.5L56.5,70L70,70L70,86.5C70,86.898 69.842,87.279 69.561,87.561C69.279,87.842 68.898,88 68.5,88L23.5,88C23.102,88 22.721,87.842 22.439,87.561C22.158,87.279 22,86.898 22,86.5L22,67L32.5,67L32.5,71.5C32.5,71.898 32.658,72.279 32.939,72.561C33.221,72.842 33.602,73 34,73L43,73L43,70L35.5,70L35.5,65.5C35.5,65.102 35.342,64.721 35.061,64.439C34.779,64.158 34.398,64 34,64L22,64L22,25L37,25C37.398,25 37.779,24.842 38.061,24.561C38.342,24.279 38.5,23.898 38.5,23.5L38.5,16L46,16L46,13L37,13C36.602,13 36.221,13.158 35.939,13.439C35.658,13.721 35.5,14.102 35.5,14.5L35.5,22L22,22L22,5.5C22,5.102 22.158,4.721 22.439,4.439C22.721,4.158 23.102,4 23.5,4L28,4L28,5.5C28.004,6.692 28.479,7.835 29.322,8.678C30.165,9.521 31.308,9.996 32.5,10L59.5,10C60.692,9.996 61.835,9.521 62.678,8.678C63.521,7.835 63.996,6.692 64,5.5L64,4L68.5,4C68.898,4 69.279,4.158 69.561,4.439C69.842,4.721 70,5.102 70,5.5L70,25ZM73,64.3C73.478,64.11 73.986,64.008 74.5,64C75.693,64 76.838,64.474 77.682,65.318C78.526,66.162 79,67.307 79,68.5C79,69.693 78.526,70.838 77.682,71.682C76.838,72.526 75.693,73 74.5,73C73.986,72.992 73.478,72.89 73,72.7L73,64.3ZM88,70.03L84.43,70.48C84.146,70.519 83.879,70.636 83.659,70.819C83.439,71.002 83.275,71.243 83.185,71.515C83.076,71.877 82.936,72.228 82.765,72.565C82.642,72.814 82.593,73.093 82.622,73.369C82.651,73.645 82.758,73.907 82.93,74.125L85.135,76.96L82.96,79.135L80.125,76.93C79.907,76.758 79.645,76.651 79.369,76.622C79.093,76.593 78.814,76.642 78.565,76.765C78.228,76.936 77.877,77.076 77.515,77.185C77.243,77.275 77.002,77.439 76.819,77.659C76.636,77.879 76.519,78.146 76.48,78.43L76.03,82L73,82L73,75.835C73.494,75.935 73.996,75.99 74.5,76C76.489,76 78.397,75.21 79.803,73.803C81.21,72.397 82,70.489 82,68.5C82,66.511 81.21,64.603 79.803,63.197C78.397,61.79 76.489,61 74.5,61C73.996,61.01 73.494,61.065 73,61.165L73,55L76.03,55L76.48,58.57C76.519,58.854 76.636,59.121 76.819,59.341C77.002,59.561 77.243,59.725 77.515,59.815C77.877,59.924 78.228,60.064 78.565,60.235C78.814,60.358 79.093,60.407 79.369,60.378C79.645,60.349 79.907,60.242 80.125,60.07L82.96,57.865L85.135,60.04L82.93,62.875C82.758,63.093 82.651,63.355 82.622,63.631C82.593,63.907 82.642,64.186 82.765,64.435C82.936,64.772 83.076,65.123 83.185,65.485C83.275,65.757 83.439,65.998 83.659,66.181C83.879,66.364 84.146,66.481 84.43,66.52L88,66.97L88,70.03Z" fill="#80A948"/>
<path d="M62.5,32.5L29.5,32.5C28.308,32.504 27.165,32.979 26.322,33.822C25.479,34.665 25.004,35.808 25,37L25,55C25.004,56.192 25.479,57.335 26.322,58.178C27.165,59.021 28.308,59.496 29.5,59.5L62.5,59.5C63.692,59.496 64.835,59.021 65.678,58.178C66.521,57.335 66.996,56.192 67,55L67,37C66.996,35.808 66.521,34.665 65.678,33.822C64.835,32.979 63.692,32.504 62.5,32.5L62.5,32.5ZM64,55C64,55.398 63.842,55.779 63.561,56.061C63.279,56.342 62.898,56.5 62.5,56.5L29.5,56.5C29.102,56.5 28.721,56.342 28.439,56.061C28.158,55.779 28,55.398 28,55L28,37C28,36.602 28.158,36.221 28.439,35.939C28.721,35.658 29.102,35.5 29.5,35.5L62.5,35.5C62.898,35.5 63.279,35.658 63.561,35.939C63.842,36.221 64,36.602 64,37L64,55Z" fill="#80A948"/>
</svg>
