<svg width="84" height="92" viewBox="0 0 84 92" fill="none" xmlns="http://www.w3.org/2000/svg" xmlns:xlink="http://www.w3.org/1999/xlink">
<path d="M61.498,39.377L59.558,37.438L57.438,39.558L60.438,42.558C60.719,42.84 61.1,42.998 61.498,42.998C61.896,42.998 62.277,42.84 62.558,42.558L68.558,36.558L66.438,34.438L61.498,39.377Z" fill="#80A948"/>
<path d="M61.498,51.377L59.558,49.438L57.438,51.558L60.438,54.558C60.719,54.84 61.1,54.998 61.498,54.998C61.896,54.998 62.277,54.84 62.558,54.558L68.558,48.558L66.438,46.438L61.498,51.377Z" fill="#80A948"/>
<path d="M61.498,64.877L59.558,62.938L57.438,65.058L60.438,68.058C60.719,68.34 61.1,68.498 61.498,68.498C61.896,68.498 62.277,68.34 62.558,68.058L68.558,62.058L66.438,59.938L61.498,64.877Z" fill="#80A948"/>
<path d="M79.5,29.5L69,29.5L69,14.5C68.996,13.308 68.521,12.165 67.678,11.322C66.835,10.479 65.692,10.004 64.5,10L49.5,10L49.5,8.5C49.496,7.308 49.021,6.165 48.178,5.322C47.335,4.479 46.192,4.004 45,4L42,4L42,2.5C42,2.102 41.842,1.721 41.561,1.439C41.279,1.158 40.898,1 40.5,1L28.5,1C28.102,1 27.721,1.158 27.439,1.439C27.158,1.721 27,2.102 27,2.5L27,4L24,4C22.808,4.004 21.665,4.479 20.822,5.322C19.979,6.165 19.504,7.308 19.5,8.5L19.5,10L4.5,10C3.308,10.004 2.165,10.479 1.322,11.322C0.479,12.165 0.004,13.308 0,14.5L0,86.5C0.004,87.692 0.479,88.835 1.322,89.678C2.165,90.521 3.308,90.996 4.5,91L64.5,91C65.692,90.996 66.835,90.521 67.678,89.678C68.521,88.835 68.996,87.692 69,86.5L69,74.5L79.5,74.5C80.692,74.496 81.835,74.021 82.678,73.178C83.521,72.335 83.996,71.192 84,70L84,34C83.996,32.808 83.521,31.665 82.678,30.822C81.835,29.979 80.692,29.504 79.5,29.5L79.5,29.5ZM42,7L45,7C45.398,7 45.779,7.158 46.061,7.439C46.342,7.721 46.5,8.102 46.5,8.5L46.5,10L42,10L42,7ZM42,13L64.5,13C64.898,13 65.279,13.158 65.561,13.439C65.842,13.721 66,14.102 66,14.5L66,29.5L64.5,29.5L64.5,16C64.5,15.602 64.342,15.221 64.061,14.939C63.779,14.658 63.398,14.5 63,14.5L42,14.5L42,13ZM30,4L39,4L39,16C39,16.398 38.842,16.779 38.561,17.061C38.279,17.342 37.898,17.5 37.5,17.5L31.5,17.5C31.102,17.5 30.721,17.342 30.439,17.061C30.158,16.779 30,16.398 30,16L30,4ZM27.27,17.5C27.581,18.374 28.154,19.131 28.911,19.668C29.668,20.205 30.572,20.495 31.5,20.5L37.5,20.5C38.428,20.495 39.332,20.205 40.089,19.668C40.846,19.131 41.419,18.374 41.73,17.5L61.5,17.5L61.5,29.5L55.5,29.5C54.308,29.504 53.165,29.979 52.322,30.822C51.479,31.665 51.004,32.808 51,34L51,70C51.004,71.192 51.479,72.335 52.322,73.178C53.165,74.021 54.308,74.496 55.5,74.5L61.5,74.5L61.5,83.5L7.5,83.5L7.5,17.5L27.27,17.5ZM22.5,8.5C22.5,8.102 22.658,7.721 22.939,7.439C23.221,7.158 23.602,7 24,7L27,7L27,10L22.5,10L22.5,8.5ZM66,86.5C66,86.898 65.842,87.279 65.561,87.561C65.279,87.842 64.898,88 64.5,88L4.5,88C4.102,88 3.721,87.842 3.439,87.561C3.158,87.279 3,86.898 3,86.5L3,14.5C3,14.102 3.158,13.721 3.439,13.439C3.721,13.158 4.102,13 4.5,13L27,13L27,14.5L6,14.5C5.602,14.5 5.221,14.658 4.939,14.939C4.658,15.221 4.5,15.602 4.5,16L4.5,85C4.5,85.398 4.658,85.779 4.939,86.061C5.221,86.342 5.602,86.5 6,86.5L63,86.5C63.398,86.5 63.779,86.342 64.061,86.061C64.342,85.779 64.5,85.398 64.5,85L64.5,74.5L66,74.5L66,86.5ZM81,70C81,70.398 80.842,70.779 80.561,71.061C80.279,71.342 79.898,71.5 79.5,71.5L55.5,71.5C55.102,71.5 54.721,71.342 54.439,71.061C54.158,70.779 54,70.398 54,70L54,34C54,33.602 54.158,33.221 54.439,32.939C54.721,32.658 55.102,32.5 55.5,32.5L79.5,32.5C79.898,32.5 80.279,32.658 80.561,32.939C80.842,33.221 81,33.602 81,34L81,70Z" fill="#80A948"/>
<rect  x="69" y="38.5" width="9" height="3" fill="#80A948"/>
<rect  x="69" y="50.5" width="9" height="3" fill="#80A948"/>
<rect  x="69" y="64" width="9" height="3" fill="#80A948"/>
<path d="M33,32.5L42,32.5C42.398,32.5 42.779,32.342 43.061,32.061C43.342,31.779 43.5,31.398 43.5,31L43.5,29.5L48,29.5L48,26.5L43.5,26.5L43.5,25C43.5,24.602 43.342,24.221 43.061,23.939C42.779,23.658 42.398,23.5 42,23.5L33,23.5C32.602,23.5 32.221,23.658 31.939,23.939C31.658,24.221 31.5,24.602 31.5,25L31.5,26.5L22.5,26.5L22.5,25C22.5,24.602 22.342,24.221 22.061,23.939C21.779,23.658 21.398,23.5 21,23.5L12,23.5C11.602,23.5 11.221,23.658 10.939,23.939C10.658,24.221 10.5,24.602 10.5,25L10.5,31C10.5,31.398 10.658,31.779 10.939,32.061C11.221,32.342 11.602,32.5 12,32.5L15,32.5L15,38.5L12,38.5C11.602,38.5 11.221,38.658 10.939,38.939C10.658,39.221 10.5,39.602 10.5,40L10.5,46C10.5,46.398 10.658,46.779 10.939,47.061C11.221,47.342 11.602,47.5 12,47.5L15,47.5L15,53.5L12,53.5C11.602,53.5 11.221,53.658 10.939,53.939C10.658,54.221 10.5,54.602 10.5,55L10.5,61C10.5,61.398 10.658,61.779 10.939,62.061C11.221,62.342 11.602,62.5 12,62.5L15,62.5L15,68.5L12,68.5C11.602,68.5 11.221,68.658 10.939,68.939C10.658,69.221 10.5,69.602 10.5,70L10.5,76C10.5,76.398 10.658,76.779 10.939,77.061C11.221,77.342 11.602,77.5 12,77.5L21,77.5C21.398,77.5 21.779,77.342 22.061,77.061C22.342,76.779 22.5,76.398 22.5,76L22.5,74.5L31.5,74.5L31.5,76C31.5,76.398 31.658,76.779 31.939,77.061C32.221,77.342 32.602,77.5 33,77.5L42,77.5C42.398,77.5 42.779,77.342 43.061,77.061C43.342,76.779 43.5,76.398 43.5,76L43.5,74.5L48,74.5L48,71.5L43.5,71.5L43.5,70C43.5,69.602 43.342,69.221 43.061,68.939C42.779,68.658 42.398,68.5 42,68.5L33,68.5C32.602,68.5 32.221,68.658 31.939,68.939C31.658,69.221 31.5,69.602 31.5,70L31.5,71.5L22.5,71.5L22.5,70C22.5,69.602 22.342,69.221 22.061,68.939C21.779,68.658 21.398,68.5 21,68.5L18,68.5L18,62.5L21,62.5C21.398,62.5 21.779,62.342 22.061,62.061C22.342,61.779 22.5,61.398 22.5,61L22.5,55C22.5,54.602 22.342,54.221 22.061,53.939C21.779,53.658 21.398,53.5 21,53.5L18,53.5L18,47.5L21,47.5C21.398,47.5 21.779,47.342 22.061,47.061C22.342,46.779 22.5,46.398 22.5,46L22.5,44.5L31.5,44.5L31.5,46C31.5,46.398 31.658,46.779 31.939,47.061C32.221,47.342 32.602,47.5 33,47.5L36,47.5L36,53.5L33,53.5C32.602,53.5 32.221,53.658 31.939,53.939C31.658,54.221 31.5,54.602 31.5,55L31.5,61C31.5,61.398 31.658,61.779 31.939,62.061C32.221,62.342 32.602,62.5 33,62.5L42,62.5C42.398,62.5 42.779,62.342 43.061,62.061C43.342,61.779 43.5,61.398 43.5,61L43.5,59.5L48,59.5L48,56.5L43.5,56.5L43.5,55C43.5,54.602 43.342,54.221 43.061,53.939C42.779,53.658 42.398,53.5 42,53.5L39,53.5L39,47.5L42,47.5C42.398,47.5 42.779,47.342 43.061,47.061C43.342,46.779 43.5,46.398 43.5,46L43.5,44.5L48,44.5L48,41.5L43.5,41.5L43.5,40C43.5,39.602 43.342,39.221 43.061,38.939C42.779,38.658 42.398,38.5 42,38.5L33,38.5C32.602,38.5 32.221,38.658 31.939,38.939C31.658,39.221 31.5,39.602 31.5,40L31.5,41.5L22.5,41.5L22.5,40C22.5,39.602 22.342,39.221 22.061,38.939C21.779,38.658 21.398,38.5 21,38.5L18,38.5L18,32.5L21,32.5C21.398,32.5 21.779,32.342 22.061,32.061C22.342,31.779 22.5,31.398 22.5,31L22.5,29.5L31.5,29.5L31.5,31C31.5,31.398 31.658,31.779 31.939,32.061C32.221,32.342 32.602,32.5 33,32.5ZM34.5,26.5L40.5,26.5L40.5,29.5L34.5,29.5L34.5,26.5ZM34.5,71.5L40.5,71.5L40.5,74.5L34.5,74.5L34.5,71.5ZM40.5,56.5L40.5,59.5L34.5,59.5L34.5,56.5L40.5,56.5ZM34.5,41.5L40.5,41.5L40.5,44.5L34.5,44.5L34.5,41.5ZM19.5,71.5L19.5,74.5L13.5,74.5L13.5,71.5L19.5,71.5ZM19.5,56.5L19.5,59.5L13.5,59.5L13.5,56.5L19.5,56.5ZM19.5,41.5L19.5,44.5L13.5,44.5L13.5,41.5L19.5,41.5ZM19.5,29.5L13.5,29.5L13.5,26.5L19.5,26.5L19.5,29.5Z" fill="#80A948"/>
</svg>
